<?xml version="1.0" encoding="utf-8"?>
<!-- Generator: Adobe Illustrator 23.0.3, SVG Export Plug-In . SVG Version: 6.00 Build 0)  -->
<svg version="1.1" id="Layer_1" xmlns="http://www.w3.org/2000/svg" xmlns:xlink="http://www.w3.org/1999/xlink" x="0px" y="0px"
	 viewBox="0 0 587 643" style="enable-background:new 0 0 587 643;" xml:space="preserve">
<style type="text/css">
	.st0{fill:none;}
	.st1{fill:#FDFDFD;}
</style>
<g id="Fill_1">
	<path class="st0" d="M202,0c-42.3,0-88.1,34.4-102.2,76.9L4.2,364.8c-14.1,42.5,8.8,76.9,51.1,76.9h210.5
		C239.1,538.8,164.8,609,122,641h172.1c127-107.9,198.4-291.3,206.8-317.5c0-0.1,0-0.1,0-0.2l81.9-246.4C596.9,34.4,574.1,0,531.7,0
		H202z"/>
	<path class="st1" d="M202,4c-9.9,0-20.1,1.9-30.4,5.8c-5,1.9-10,4.2-14.8,6.8c-4.8,2.7-9.5,5.7-14,9.1c-4.5,3.4-8.8,7.1-12.7,11
		c-4,4-7.7,8.2-11,12.6c-6.9,9.1-12.1,18.8-15.4,28.8L8,366.1c-1.7,5.2-2.9,10.3-3.5,15.3c-0.6,4.8-0.6,9.5-0.2,14
		c0.5,4.4,1.4,8.5,2.9,12.4c1.4,3.8,3.3,7.4,5.6,10.6c2.2,3,4.7,5.7,7.5,8c2.9,2.4,6.1,4.4,9.6,6.1c7.4,3.5,15.9,5.2,25.2,5.2h210.5
		h5.2l-1.4,5.1c-26.5,96.6-98,164.1-135.9,194.2h158.9c14.7-12.6,29.3-26.8,43.5-42.3c13.4-14.6,26.6-30.6,39.5-47.6
		c22-29.3,43.2-62.1,62.9-97.5c8-14.5,15.8-29.4,23.2-44.4c6.2-12.7,12.1-25.4,17.6-37.9c10-22.8,15.9-39,17.9-45.1c0,0,0,0,0,0
		l0-0.1l0-0.1L579,75.6c1.7-5.2,2.9-10.3,3.5-15.3c0.6-4.8,0.6-9.5,0.2-14c-0.5-4.4-1.4-8.5-2.9-12.4c-1.4-3.8-3.3-7.4-5.6-10.6
		c-2.2-3-4.7-5.7-7.5-8c-2.9-2.4-6.1-4.4-9.6-6.1C549.6,5.8,541.1,4,531.7,4H202 M202,0h329.7c42.3,0,65.2,34.4,51.1,76.9L501,323.3
		c0,0.1,0,0.1,0,0.2c-8.5,26.2-79.8,209.6-206.8,317.5H122c42.8-32.1,117.2-102.2,143.8-199.3H55.3c-42.3,0-65.2-34.4-51.1-76.9
		L99.8,76.9C113.9,34.4,159.7,0,202,0z"/>
</g>
</svg>
