<?xml version="1.0" encoding="utf-8"?>
<!-- Generator: Adobe Illustrator 23.0.3, SVG Export Plug-In . SVG Version: 6.00 Build 0)  -->
<svg version="1.1" id="Layer_1" xmlns="http://www.w3.org/2000/svg" xmlns:xlink="http://www.w3.org/1999/xlink" x="0px" y="0px"
	 viewBox="0 0 116 170" style="enable-background:new 0 0 116 170;" xml:space="preserve">
<style type="text/css">
	.st0{fill:#11313E;}
	.st1{clip-path:url(#SVGID_4_);}
	.st2{fill:#F99B1D;}
	.st3{fill:none;}
	.st4{clip-path:url(#SVGID_8_);}
	.st5{fill:#FFBE0C;}
	.st6{clip-path:url(#SVGID_10_);}
	.st7{fill:#FFD469;}
	.st8{fill:#7DBDCC;}
	.st9{fill:#FFFFFF;}
</style>
<g id="Group_29">
	<path id="Fill_4" class="st0" d="M28.9,114.5c0.5,1.6,0.8,3.3,1,4.9v31.7l0.2-0.2c-0.1,0.1-0.2,0.2-0.2,0.2l9.7,6.4H75l9.7-6.5
		c0,0-0.1,0.1-0.2,0c0,0,0.1-0.1,0.2,0v-31.5c0.2-1.7,0.5-3.3,1-4.9L28.9,114.5L28.9,114.5z"/>
	<g id="Group_8">
		
			<image style="overflow:visible;opacity:0.24;" width="231" height="232" xlink:href="AD319D16.png"  transform="matrix(1 0 0 1 -58 -57)">
		</image>
		<g>
			<image style="overflow:visible;" width="165" height="166" xlink:href="AD319D1A.png"  transform="matrix(1 0 0 1 -25 -27)">
			</image>
			<g>
				<g>
					<g>
						<g>
							<defs>
								<rect id="SVGID_1_" x="2.5" y="3" width="109.6" height="111.5"/>
							</defs>
							<clipPath id="SVGID_2_">
								<use xlink:href="#SVGID_1_"  style="overflow:visible;"/>
							</clipPath>
						</g>
					</g>
				</g>
				<g>
					<g>
						<g>
							<defs>
								<rect id="SVGID_3_" x="2.5" y="3" width="109.6" height="111.5"/>
							</defs>
							<clipPath id="SVGID_4_">
								<use xlink:href="#SVGID_3_"  style="overflow:visible;"/>
							</clipPath>
							<g id="Group_8-2_12_" class="st1">
								<path id="Fill_6_18_" class="st2" d="M57.3,3C27.1,2.9,2.6,27.4,2.5,57.5c0,0,0,0,0,0c0,11.2,3.5,22.2,10,31.4
									c6.1,8.7,13.8,18,16.5,25.6h56.7c2.7-7.6,10.3-16.9,16.5-25.6c6.5-9.2,10-20.1,10-31.4C112,27.4,87.5,2.9,57.3,3L57.3,3"/>
							</g>
						</g>
					</g>
				</g>
				<g>
					<g>
						<g>
							<defs>
								<rect id="SVGID_5_" x="2.5" y="3" width="109.6" height="111.5"/>
							</defs>
							<clipPath id="SVGID_6_">
								<use xlink:href="#SVGID_5_"  style="overflow:visible;"/>
							</clipPath>
						</g>
					</g>
				</g>
			</g>
		</g>
	</g>
	<g id="Group_11">
		<path id="Clip_10-2" class="st3" d="M2.5,3h81.3v111.5H2.5V3z"/>
		<g>
			<g>
				<defs>
					<rect id="SVGID_7_" x="2.5" y="3" width="81.3" height="111.5"/>
				</defs>
				<clipPath id="SVGID_8_">
					<use xlink:href="#SVGID_7_"  style="overflow:visible;"/>
				</clipPath>
				<g id="Group_11-2" class="st4">
					<path id="Fill_9" class="st5" d="M2.5,57.5c0,11.2,3.5,22.2,10,31.4c6.1,8.7,13.8,18,16.5,25.6h30.4
						C90.1,86.3,92.2,38.4,64,7.6c-1.5-1.6-3-3.1-4.5-4.6c-0.7,0-1.4,0-2.1,0C27.1,2.9,2.6,27.4,2.5,57.5L2.5,57.5"/>
				</g>
			</g>
		</g>
	</g>
	<g id="Group_14" transform="translate(0 10.951)">
		<path id="Clip_13-2" class="st3" d="M2.5,3.4h35.7V93H2.5V3.4z"/>
		<g>
			<g>
				<defs>
					<rect id="SVGID_9_" x="2.5" y="3.4" width="35.7" height="89.6"/>
				</defs>
				<clipPath id="SVGID_10_">
					<use xlink:href="#SVGID_9_"  style="overflow:visible;"/>
				</clipPath>
				<g id="Group_14-2" class="st6">
					<path id="Fill_12" class="st7" d="M38.2,47.8c0-15.9-5-31.5-14.4-44.4C0.6,21.2-4.4,54.1,12.5,78C16,82.9,20,88.1,23.2,93
						C33,79.9,38.2,64.1,38.2,47.8"/>
				</g>
			</g>
		</g>
	</g>
	<path id="Fill_15" class="st8" d="M39.6,157.5l14.1,9.8h7.2l14.1-9.8H39.6z"/>
	<path id="Fill_17" class="st9" d="M43.1,29.2c-10.3,5-16.8,15.5-16.7,26.9c0,3-2.5,5.4-5.5,5.3c-2.9,0-5.3-2.4-5.4-5.3
		c0-15.5,8.8-29.7,22.7-36.6c2.7-1.3,5.9-0.3,7.3,2.4S45.8,27.8,43.1,29.2"/>
	<path id="Fill_19" class="st9" d="M56.6,26c-0.8,0-1.6,0-2.4,0.1c-0.2,0-0.3,0-0.4,0c-3,0.1-5.5-2.3-5.5-5.3
		c-0.1-2.9,2.2-5.3,5.1-5.5c1.1-0.1,2.2-0.1,3.3-0.1c3,0,5.4,2.4,5.4,5.4C62,23.6,59.5,26,56.6,26L56.6,26"/>
	<path id="Fill_21" class="st8" d="M32,126.6L32,126.6c-1.8,0-3.3-1.4-3.4-3.2c-0.1-1.9,1.3-3.5,3.2-3.7c0,0,0,0,0,0l50.7-3.7h0
		c1.8,0,3.4,1.3,3.5,3.2c0.1,0.9-0.2,1.8-0.8,2.5c-0.6,0.7-1.4,1.1-2.4,1.2L32,126.6z"/>
	<path id="Fill_23" class="st8" d="M32,140.3L32,140.3c-1.8,0-3.3-1.4-3.5-3.2c-0.1-0.9,0.2-1.8,0.8-2.5c0.6-0.7,1.4-1.1,2.3-1.2
		l50.7-3.7h0c1.8,0,3.4,1.3,3.5,3.2c0.1,0.9-0.2,1.8-0.8,2.5c-0.6,0.7-1.4,1.1-2.4,1.2L32,140.3z"/>
	<path id="Fill_25" class="st8" d="M32,153.9L32,153.9c-1.9,0-3.4-1.5-3.5-3.4c0-1.8,1.4-3.3,3.2-3.4l50.7-3.7h0
		c1.8,0,3.4,1.3,3.5,3.2c0.1,0.9-0.2,1.8-0.8,2.5c-0.6,0.7-1.4,1.1-2.3,1.2L32,153.9z"/>
	<path id="Fill_27" class="st0" d="M49.5,164.4l4.1,2.9h7.2l4.1-2.9H49.5z"/>
</g>
</svg>
