<?xml version="1.0" encoding="utf-8"?>
<!-- Generator: Adobe Illustrator 23.0.3, SVG Export Plug-In . SVG Version: 6.00 Build 0)  -->
<svg version="1.1" id="Layer_1" xmlns="http://www.w3.org/2000/svg" xmlns:xlink="http://www.w3.org/1999/xlink" x="0px" y="0px"
	 viewBox="0 0 116 170" style="enable-background:new 0 0 116 170;" xml:space="preserve">
<style type="text/css">
	.st0{fill:#11313E;}
	.st1{fill:none;}
	.st2{clip-path:url(#SVGID_2_);}
	.st3{fill:#F99B1D;}
	.st4{clip-path:url(#SVGID_4_);}
	.st5{fill:#FFBE0C;}
	.st6{clip-path:url(#SVGID_6_);}
	.st7{fill:#FFD469;}
	.st8{fill:#7DBDCC;}
	.st9{fill:#FFFFFF;}
</style>
<g id="Group_29">
	<path id="Fill_4" class="st0" d="M28.92,114.51c0.46,1.61,0.79,3.27,0.97,4.94v31.68l0.18-0.2c-0.06,0.06-0.18,0.2-0.18,0.2
		l9.71,6.35h35.36l9.71-6.5c0,0-0.13,0.06-0.18,0c0.03,0.03,0.08-0.11,0.18,0v-31.52c0.18-1.67,0.51-3.32,0.97-4.94H28.92z"/>
	<g id="Group_8">
		<path id="Clip_7-2" class="st1" d="M2.5,3.01h109.57v111.5H2.5V3.01z"/>
		<g>
			<defs>
				<rect id="SVGID_1_" x="2.5" y="3.01" width="109.57" height="111.5"/>
			</defs>
			<clipPath id="SVGID_2_">
				<use xlink:href="#SVGID_1_"  style="overflow:visible;"/>
			</clipPath>
			<g id="Group_8-2" class="st2">
				<path id="Fill_6" class="st3" d="M57.29,3.01C27.1,2.94,2.57,27.36,2.5,57.54c0,0,0,0,0,0.01c-0.02,11.24,3.47,22.2,9.98,31.37
					c6.14,8.67,13.79,18.04,16.45,25.59h56.72c2.66-7.55,10.3-16.92,16.45-25.59c6.51-9.17,9.99-20.13,9.98-31.37
					C112.01,27.36,87.48,2.94,57.29,3.01C57.29,3.01,57.29,3.01,57.29,3.01"/>
			</g>
		</g>
	</g>
	<g id="Group_11">
		<path id="Clip_10-2" class="st1" d="M2.5,3.01h81.35v111.5H2.5V3.01z"/>
		<g>
			<defs>
				<rect id="SVGID_3_" x="2.5" y="3.01" width="81.35" height="111.5"/>
			</defs>
			<clipPath id="SVGID_4_">
				<use xlink:href="#SVGID_3_"  style="overflow:visible;"/>
			</clipPath>
			<g id="Group_11-2" class="st4">
				<path id="Fill_9" class="st5" d="M2.5,57.55c-0.02,11.24,3.47,22.2,9.98,31.37c6.14,8.67,13.79,18.04,16.45,25.59h30.41
					c30.79-28.25,32.85-76.11,4.61-106.9c-1.45-1.58-2.97-3.1-4.55-4.55c-0.7-0.03-1.4-0.05-2.1-0.05
					C27.1,2.94,2.57,27.35,2.5,57.54C2.5,57.54,2.5,57.55,2.5,57.55"/>
			</g>
		</g>
	</g>
	<g id="Group_14" transform="translate(0 10.951)">
		<path id="Clip_13-2" class="st1" d="M2.5,3.44h35.7v89.55H2.5V3.44z"/>
		<g>
			<defs>
				<rect id="SVGID_5_" x="2.5" y="3.44" width="35.7" height="89.55"/>
			</defs>
			<clipPath id="SVGID_6_">
				<use xlink:href="#SVGID_5_"  style="overflow:visible;"/>
			</clipPath>
			<g id="Group_14-2" class="st6">
				<path id="Fill_12" class="st7" d="M38.2,47.81c0.02-15.94-5.02-31.48-14.39-44.37C0.61,21.2-4.39,54.12,12.48,77.97
					c3.5,4.93,7.48,10.1,10.75,15.02C32.97,79.94,38.22,64.09,38.2,47.81"/>
			</g>
		</g>
	</g>
	<path id="Fill_15" class="st8" d="M39.6,157.47l14.07,9.8h7.22l14.07-9.8H39.6z"/>
	<path id="Fill_17" class="st9" d="M43.1,29.19c-10.25,5.04-16.75,15.48-16.73,26.91c-0.04,3-2.5,5.39-5.5,5.35
		c-2.94-0.04-5.31-2.41-5.35-5.35c-0.02-15.52,8.79-29.71,22.72-36.56c2.67-1.34,5.91-0.27,7.26,2.4S45.77,27.84,43.1,29.19"/>
	<path id="Fill_19" class="st9" d="M56.57,26.03c-0.82,0-1.63,0.03-2.43,0.1c-0.15,0.01-0.29,0.02-0.43,0.02
		c-2.98,0.06-5.45-2.31-5.51-5.29c-0.06-2.9,2.19-5.33,5.09-5.5c1.09-0.09,2.2-0.13,3.28-0.13c2.98,0,5.4,2.42,5.4,5.4
		C61.97,23.61,59.55,26.03,56.57,26.03C56.57,26.03,56.57,26.03,56.57,26.03"/>
	<path id="Fill_21" class="st8" d="M32.04,126.62h-0.03c-1.79-0.01-3.27-1.38-3.42-3.16c-0.14-1.88,1.27-3.52,3.16-3.66
		c0,0,0,0,0.01,0l50.68-3.73h0.01c1.83-0.04,3.38,1.34,3.53,3.17c0.07,0.9-0.23,1.79-0.82,2.46c-0.59,0.7-1.44,1.12-2.36,1.18
		L32.04,126.62z"/>
	<path id="Fill_23" class="st8" d="M32.03,140.28h-0.02c-1.79,0-3.28-1.37-3.43-3.16c-0.07-0.91,0.23-1.81,0.83-2.49
		c0.59-0.69,1.43-1.11,2.34-1.17l50.67-3.73h0.01c1.83-0.04,3.38,1.34,3.54,3.16c0.07,0.9-0.22,1.79-0.82,2.47
		c-0.6,0.7-1.45,1.12-2.36,1.19L32.03,140.28z"/>
	<path id="Fill_25" class="st8" d="M32.04,153.94h-0.03c-1.89,0.01-3.42-1.52-3.43-3.4c-0.01-1.8,1.38-3.29,3.17-3.42l50.69-3.74
		h0.01c1.82-0.04,3.37,1.34,3.53,3.16c0.07,0.9-0.22,1.79-0.82,2.48c-0.59,0.7-1.44,1.12-2.35,1.19L32.04,153.94z"/>
	<path id="Fill_27" class="st0" d="M49.54,164.4l4.13,2.88h7.22l4.13-2.88H49.54z"/>
</g>
</svg>
