<svg xmlns="http://www.w3.org/2000/svg" width="152" height="46" viewBox="0 0 152 46"><rect width="152" height="46" transform="translate(0 0)" fill="rgba(0,0,0,0)"/><g transform="translate(0.001 0)"><g transform="translate(29.654)"><g transform="translate(0 0)"><path d="M.183,17.13A.181.181,0,0,1,0,16.964L.881,9.023a5.718,5.718,0,0,1,.61-1.911,7.912,7.912,0,0,1,.875-1.061,10.286,10.286,0,0,0,1.25-1.545A34.82,34.82,0,0,0,5.53.08.194.194,0,0,1,5.683,0h.5A1.9,1.9,0,0,1,7.7.749a1.8,1.8,0,0,1,.281,1.637l-1.1,3.567a.774.774,0,0,0,.124.72.837.837,0,0,0,.672.319h3.147a1.721,1.721,0,0,1,1.485.548,2.2,2.2,0,0,1,.065,1.752L10.26,14.773a3.726,3.726,0,0,1-3.47,2.344Z" transform="translate(0.326 0.319)" fill="none"/><path d="M7.107,17.767H.509A.5.5,0,0,1,0,17.27L.884,9.307a5.9,5.9,0,0,1,.653-2.032,7.785,7.785,0,0,1,.921-1.118A10.236,10.236,0,0,0,3.666,4.67a36.367,36.367,0,0,0,1.9-4.4A.506.506,0,0,1,6.013,0h.5A2.232,2.232,0,0,1,8.29.885a2.12,2.12,0,0,1,.322,1.925l-1.1,3.561a.49.49,0,0,0,.08.437.52.52,0,0,0,.407.2h3.146A2.016,2.016,0,0,1,12.9,7.7,2.5,2.5,0,0,1,13,9.734L10.88,15.218A4.054,4.054,0,0,1,7.107,17.767ZM6.11.637h0A34.629,34.629,0,0,1,4.243,4.985,10.287,10.287,0,0,1,2.938,6.578a8.393,8.393,0,0,0-.829.994,5.369,5.369,0,0,0-.575,1.793L.673,17.129H7.116a3.418,3.418,0,0,0,3.163-2.137l2.116-5.482a1.882,1.882,0,0,0-.026-1.459,1.445,1.445,0,0,0-1.218-.411H8a1.178,1.178,0,0,1-.937-.46,1.114,1.114,0,0,1-.173-1.009l1.1-3.558a1.489,1.489,0,0,0-.227-1.358A1.571,1.571,0,0,0,6.514.637h-.4Z" transform="translate(0 0)" fill="#fff"/></g><g transform="translate(13.557)"><path d="M.18,17.13A.181.181,0,0,1,0,16.964L.881,9.023a5.633,5.633,0,0,1,.61-1.911,7.662,7.662,0,0,1,.875-1.061A10.234,10.234,0,0,0,3.614,4.507,35.486,35.486,0,0,0,5.523.083.187.187,0,0,1,5.664,0h.5A1.9,1.9,0,0,1,7.678.749a1.8,1.8,0,0,1,.281,1.637l-1.1,3.567a.8.8,0,0,0,.129.722A.843.843,0,0,0,7.655,7H10.8a1.721,1.721,0,0,1,1.485.548A2.175,2.175,0,0,1,12.349,9.3l-2.115,5.482a3.726,3.726,0,0,1-3.47,2.344Z" transform="translate(0.346 0.319)" fill="none"/><path d="M7.1,17.767H.506a.515.515,0,0,1-.359-.145A.488.488,0,0,1,0,17.27L.881,9.307a5.973,5.973,0,0,1,.653-2.032,7.82,7.82,0,0,1,.923-1.122A10.337,10.337,0,0,0,3.663,4.67a36.367,36.367,0,0,0,1.9-4.4A.5.5,0,0,1,6.007,0h.512A2.237,2.237,0,0,1,8.294.882,2.122,2.122,0,0,1,8.621,2.8L7.527,6.371a.49.49,0,0,0,.08.437.517.517,0,0,0,.406.2h3.147a2,2,0,0,1,1.752.687A2.5,2.5,0,0,1,13,9.734L10.88,15.218A4.056,4.056,0,0,1,7.1,17.767ZM6.13.637A35.11,35.11,0,0,1,4.247,4.985a10.591,10.591,0,0,1-1.29,1.593,8.5,8.5,0,0,0-.832.994,5.364,5.364,0,0,0-.571,1.793L.692,17.129H7.123a3.425,3.425,0,0,0,3.166-2.137L12.4,9.511a1.856,1.856,0,0,0-.029-1.459,1.43,1.43,0,0,0-1.214-.411H8.014a1.178,1.178,0,0,1-.936-.46A1.112,1.112,0,0,1,6.9,6.173L8,2.615a1.5,1.5,0,0,0-.228-1.357A1.579,1.579,0,0,0,6.519.637H6.13Z" transform="translate(0 0)" fill="#fff"/></g></g><g transform="translate(0 7.59)"><path d="M13.429,0H5.106A2.936,2.936,0,0,0,2.524,1.87L.1,8.877A1.31,1.31,0,0,0,1.4,10.75H6.7a9.848,9.848,0,0,1-4.315,5.284h0a.742.742,0,0,0-.382.608c0,.459.521.828,1.16.828a1.306,1.306,0,0,0,.2-.016h.056c5.713-.78,8.937-8.718,9.227-9.571h0l2.07-6A1.314,1.314,0,0,0,13.429,0Z" transform="translate(13.684 0)" fill="#fff"/><path d="M14.728,1.87A1.308,1.308,0,0,0,13.436,0H5.106A2.936,2.936,0,0,0,2.521,1.87L.1,8.877A1.31,1.31,0,0,0,1.4,10.75H6.714A9.849,9.849,0,0,1,2.4,16.034h0a.745.745,0,0,0-.379.608c0,.459.518.828,1.16.828a1.364,1.364,0,0,0,.2-.016h.056c5.709-.78,8.937-8.718,9.227-9.571h0Z" transform="translate(0 0)" fill="#fff"/></g><g transform="translate(29.77 21.858)"><path d="M2.841,12.383H0V0H4.914C8.377,0,10.06,1.254,10.06,3.833a3.323,3.323,0,0,1-2.722,3.53l2.918,5.007H7.213L4.495,7.714H2.841v4.668Zm0-10.161V5.6l1.951,0C6.515,5.6,7.25,5.094,7.25,3.9S6.538,2.222,4.792,2.222Z" transform="translate(0 0.016)" fill="#fff"/><path d="M0,6.5V0H2.847V5.714c0,.8.331,1.236,1.115,1.236a3.233,3.233,0,0,0,2.05-.9V0H8.86V8.918H6.012V7.51A4.153,4.153,0,0,1,2.758,9.075C1.151,9.094,0,8.339,0,6.5Z" transform="translate(11.403 3.489)" fill="#fff"/><path d="M0,0H2.847V4.869A4.109,4.109,0,0,1,6.1,3.279c1.607,0,2.758.754,2.758,2.594v6.509H6.012V6.728c0-.8-.331-1.224-1.1-1.224a3.284,3.284,0,0,0-2.067.889v5.989H0Z" transform="translate(22.065 0.016)" fill="#fff"/><path d="M0,.186H2.847v1.49h0A3.617,3.617,0,0,1,6.032,0h.086L6.085,2.4q-.37-.043-.744-.05a3.2,3.2,0,0,0-2.51,1.22V9.1H0Z" transform="translate(32.638 3.303)" fill="#fff"/><path d="M0,0H3.969V1H0Z" transform="translate(39.501 6.643)" fill="#fff"/><path d="M0,0H1.257V6.678L7.517,0H9.055L4.564,4.694l5.146,7.7H8.258L3.714,5.6,1.257,8.149v4.234H0Z" transform="translate(45.616 0.016)" fill="#fff"/><path d="M4.22,9.169A4.117,4.117,0,0,1,1.255,7.974,4.7,4.7,0,0,1,0,4.584a4.7,4.7,0,0,1,1.251-3.4A4.132,4.132,0,0,1,4.226,0,4.1,4.1,0,0,1,7.188,1.188a4.724,4.724,0,0,1,1.238,3.4,4.709,4.709,0,0,1-1.249,3.4A4.1,4.1,0,0,1,4.22,9.169ZM4.236.986C2.41.986,1.23,2.391,1.23,4.566c0,2.2,1.18,3.614,3.006,3.614,1.8,0,2.97-1.418,2.97-3.614h.006A4.217,4.217,0,0,0,6.5,2.108,2.676,2.676,0,0,0,4.236.986Z" transform="translate(55.755 3.414)" fill="#fff"/><path d="M0,.175H1.227V1.565A5.233,5.233,0,0,1,4.782,0C6.621,0,7.557.97,7.557,2.61V8.984H6.337V2.835C6.337,1.583,5.754,1,4.481,1a4.8,4.8,0,0,0-3.254,1.54V8.993H.007Z" transform="translate(65.773 3.405)" fill="#fff"/><path d="M1.627,4.569H0V3.58H1.627V2.259C1.627.77,2.53,0,4.3,0c.228,0,.546.016.7.034V1A5.826,5.826,0,0,0,4.385.97c-.9,0-1.538.313-1.538,1.27V3.58H4.9v.989H2.847v7.823H1.627Z" transform="translate(74.755 0)" fill="#fff"/><path d="M4.084,9.169A3.928,3.928,0,0,1,1.231,8,4.8,4.8,0,0,1,0,4.566C0,1.429,2.117,0,4.084,0c2.344,0,3.8,1.757,3.8,4.584V4.8H1.217c.018,2.031,1.2,3.4,2.936,3.4a3.179,3.179,0,0,0,2.9-1.605l.761.569A4.158,4.158,0,0,1,4.084,9.169ZM4.055.97c-1.206,0-2.582.765-2.828,2.911H6.7C6.562,2.031,5.6.97,4.055.97Z" transform="translate(80.291 3.414)" fill="#fff"/><path d="M.01.169H1.23v1.74h.036A4.157,4.157,0,0,1,4.961,0h.212L5.05,1.073l-.38-.019A3.783,3.783,0,0,0,1.22,3.245V8.984H0Z" transform="translate(90.11 3.411)" fill="#fff"/><path d="M4.084,9.169A3.929,3.929,0,0,1,1.227,8,4.808,4.808,0,0,1,0,4.566C0,1.429,2.117,0,4.084,0c2.346,0,3.8,1.757,3.8,4.584V4.8H1.22c.018,2.031,1.2,3.4,2.937,3.4a3.179,3.179,0,0,0,2.9-1.605l.761.569A4.161,4.161,0,0,1,4.084,9.169ZM4.058.97c-1.206,0-2.581.765-2.827,2.911H6.7C6.564,2.031,5.6.97,4.058.97Z" transform="translate(95.706 3.414)" fill="#fff"/><path d="M0,.175H1.22V1.565A5.227,5.227,0,0,1,4.776,0C6.614,0,7.55.97,7.55,2.61V8.984H6.33V2.835C6.33,1.583,5.748,1,4.475,1A4.8,4.8,0,0,0,1.22,2.535V8.993H0Z" transform="translate(105.538 3.405)" fill="#fff"/><path d="M0,8.08,5.675.97H.46V0H7.213V.754L1.538,7.864H7.461V8.8H0Z" transform="translate(114.768 3.58)" fill="#fff"/></g><g transform="translate(29.77 36.907)"><path d="M0,0H1.571L3.455,5.676h.02L5.3,0H6.9V7.158H5.752V1.817h-.02a15.075,15.075,0,0,1-.419,1.462L3.94,7.158H2.884L1.515,3.279A12.4,12.4,0,0,1,1.086,1.77h-.02V7.158H0Z" transform="translate(0 0)" fill="#fff"/><path d="M2.523,5.349h-.1A2.4,2.4,0,0,1,.738,4.72,2.745,2.745,0,0,1,0,2.683,2.44,2.44,0,0,1,2.409,0c.828,0,2.218.361,2.218,2.776v.281H1.172a1.279,1.279,0,0,0,.375.984,1.228,1.228,0,0,0,.872.361c.035,0,.071,0,.106,0h.068a1.825,1.825,0,0,0,1.348-.6l.62.62A2.711,2.711,0,0,1,2.523,5.349ZM2.4.979a1.2,1.2,0,0,0-1.211,1.2H3.551C3.484,1.383,3.1.979,2.4.979Z" transform="translate(7.692 1.911)" fill="#fff"/><path d="M0,.091H1.181v.7A2.486,2.486,0,0,1,3.029,0,1.372,1.372,0,0,1,4.485,1.549V5.237H3.3V1.851c0-.57-.238-.831-.752-.831a2.044,2.044,0,0,0-1.37.671V5.241H0Z" transform="translate(12.966 1.931)" fill="#fff"/><path d="M0,4.52.637,3.8a2.479,2.479,0,0,0,1.591.61c.627,0,1.01-.164,1.01-.59s-.528-.543-1.125-.677c-.865-.2-1.9-.436-1.9-1.626C.208.614.97,0,2.086,0A2.941,2.941,0,0,1,4.161.728L3.6,1.5A2.515,2.515,0,0,0,2.171.942c-.66,0-.858.231-.858.523,0,.416.5.54,1.106.671.865.194,1.924.419,1.924,1.616,0,1.086-.964,1.589-2.115,1.589A3.158,3.158,0,0,1,0,4.52Z" transform="translate(17.946 1.931)" fill="#fff"/><path d="M0,2.682A2.4,2.4,0,0,1,2.426,0a2.055,2.055,0,0,1,2.1,1.5l-.99.359A1.108,1.108,0,0,0,2.409,1c-.66,0-1.231.446-1.231,1.676,0,1.093.439,1.676,1.211,1.676A1.122,1.122,0,0,0,3.571,3.46l.97.355A2.224,2.224,0,0,1,2.36,5.328,2.324,2.324,0,0,1,0,2.682Z" transform="translate(22.573 1.911)" fill="#fff"/><path d="M0,0H1.181V2.722a2.486,2.486,0,0,1,1.848-.791A1.372,1.372,0,0,1,4.485,3.48V7.168H3.3V3.782c0-.57-.238-.831-.752-.831a2.044,2.044,0,0,0-1.37.671V7.172H0Z" transform="translate(27.665 0)" fill="#fff"/><path d="M2.52,5.349h-.1A2.4,2.4,0,0,1,.738,4.72,2.745,2.745,0,0,1,0,2.683,2.44,2.44,0,0,1,2.409,0c.828,0,2.218.361,2.218,2.776v.281H1.172a1.279,1.279,0,0,0,.373.984,1.228,1.228,0,0,0,.871.361c.035,0,.071,0,.106,0h.069a1.829,1.829,0,0,0,1.351-.6l.62.62A2.719,2.719,0,0,1,2.52,5.349ZM2.4.979a1.2,1.2,0,0,0-1.211,1.2H3.551C3.484,1.383,3.1.979,2.4.979Z" transform="translate(32.74 1.911)" fill="#fff"/><path d="M0,.091H1.181v.7A2.486,2.486,0,0,1,3.029,0,1.372,1.372,0,0,1,4.485,1.549V5.237H3.3V1.851c0-.57-.238-.831-.752-.831a2.037,2.037,0,0,0-1.37.671V5.241H0Z" transform="translate(38.014 1.931)" fill="#fff"/><path d="M0,.107H.459V.949A2.741,2.741,0,0,1,2.333,0,1.256,1.256,0,0,1,3.726.959,2.941,2.941,0,0,1,5.656,0,1.31,1.31,0,0,1,7.105,1.5V5.19H6.65V1.559C6.65.785,6.372.406,5.61.406a2.684,2.684,0,0,0-1.828.969V5.187H3.323V1.559C3.323.785,3.059.406,2.287.406a2.678,2.678,0,0,0-1.828.969V5.187H0Z" transform="translate(43.515 1.971)" fill="#fff"/><path d="M1.409,5.274C.527,5.274,0,4.8,0,4.017A1.466,1.466,0,0,1,.733,2.751a7.16,7.16,0,0,1,2.706-.874V1.569A1.016,1.016,0,0,0,2.353.406,2.726,2.726,0,0,0,.41,1.247L.142.959A3.053,3.053,0,0,1,2.353,0h.009A1.385,1.385,0,0,1,3.894,1.539V3.93a3.618,3.618,0,0,0,.142,1.257H3.551a2.541,2.541,0,0,1-.112-.755A3.04,3.04,0,0,1,1.409,5.274Zm2.03-3.048C.829,2.693.469,3.348.469,3.986c0,.561.361.882.989.882a2.823,2.823,0,0,0,1.981-.892Z" transform="translate(51.494 1.971)" fill="#fff"/><path d="M0,2.652C0,.872,1.04,0,2.162,0A1.96,1.96,0,0,1,4.019,1.341l-.389.215A1.543,1.543,0,0,0,2.145.392C1.376.392.459.976.459,2.629c0,1.422.752,2.243,1.65,2.243.762,0,1.162-.4,1.541-1.17l.363.184A2.044,2.044,0,0,1,2.079,5.281C.954,5.294,0,4.268,0,2.652Z" transform="translate(56.263 1.971)" fill="#fff"/><path d="M0,0H.455V2.92a2.88,2.88,0,0,1,1.934-.949A1.353,1.353,0,0,1,3.9,3.473V7.162H3.445V3.53c0-.774-.33-1.153-1.092-1.153a2.753,2.753,0,0,0-1.9.969V7.158H0Z" transform="translate(61.177 0)" fill="#fff"/><path d="M2.161,5.3H2.092A1.9,1.9,0,0,1,.629,4.6,2.974,2.974,0,0,1,0,2.642C0,.827,1.1,0,2.122,0,3.325,0,4.1,1.021,4.1,2.6v.071H.455A2.657,2.657,0,0,0,.924,4.267a1.494,1.494,0,0,0,1.208.618A1.707,1.707,0,0,0,3.743,3.832l.33.211A2.1,2.1,0,0,1,2.161,5.3ZM2.118.406C1.443.406.606.9.469,2.283H3.63C3.555,1.108,2.991.406,2.118.406Z" transform="translate(65.965 1.971)" fill="#fff"/><path d="M0,.107H.459V.949A2.88,2.88,0,0,1,2.393,0,1.353,1.353,0,0,1,3.907,1.5V5.19H3.449V1.559c0-.774-.33-1.153-1.1-1.153a2.753,2.753,0,0,0-1.9.969V5.187H0Z" transform="translate(70.998 1.971)" fill="#fff"/><path d="M0,0H1.574L3.458,5.676h.02L5.3,0H6.9V7.158H5.752V1.817h-.02a15.075,15.075,0,0,1-.419,1.462L3.94,7.158H2.884L1.521,3.279A13.081,13.081,0,0,1,1.1,1.77h-.02V7.158H0Z" transform="translate(76.073 0)" fill="#fff"/><path d="M2.52,5.349h-.1A2.4,2.4,0,0,1,.738,4.72,2.745,2.745,0,0,1,0,2.683,2.44,2.44,0,0,1,2.409,0c.828,0,2.218.361,2.218,2.776v.281H1.172a1.279,1.279,0,0,0,.373.984,1.228,1.228,0,0,0,.871.361c.035,0,.071,0,.106,0h.069a1.829,1.829,0,0,0,1.351-.6l.62.62A2.719,2.719,0,0,1,2.52,5.349ZM2.4.979a1.2,1.2,0,0,0-1.211,1.2H3.551C3.484,1.383,3.1.979,2.4.979Z" transform="translate(83.769 1.911)" fill="#fff"/><path d="M.875,5.582V2.736H0V1.79H.875V0H2.049V1.79h1.3v.945h-1.3V5.281c0,.553.162.774.743.774a1.827,1.827,0,0,0,.5-.067v.939a5.524,5.524,0,0,1-.858.067C1.152,6.994.875,6.514.875,5.582Z" transform="translate(88.567 0.231)" fill="#fff"/><path d="M0,.1H1.172V.944h.02A1.971,1.971,0,0,1,3.01.005h.076L3.046,1.1a3.083,3.083,0,0,0-.314-.02,1.711,1.711,0,0,0-1.561.909V5.239H0Z" transform="translate(92.498 1.919)" fill="#fff"/><path d="M2.465,5.364A2.413,2.413,0,0,1,0,2.683,2.413,2.413,0,0,1,2.465,0a2.464,2.464,0,0,1,1.7.626,2.725,2.725,0,0,1,.77,2.057A2.415,2.415,0,0,1,2.465,5.364Zm0-4.335c-.852,0-1.284.556-1.284,1.653,0,1.081.456,1.676,1.284,1.676.852,0,1.284-.564,1.284-1.676A1.824,1.824,0,0,0,3.315,1.35,1.165,1.165,0,0,0,2.465,1.029Z" transform="translate(95.567 1.911)" fill="#fff"/><path d="M1.168,7.175H0V.1H1.168V.775A2.016,2.016,0,0,1,2.757,0h.022c1.252,0,2,.994,2,2.659,0,1.685-.788,2.652-2.161,2.652H2.6a1.924,1.924,0,0,1-1.434-.647v2.51ZM2.4,1.022a1.706,1.706,0,0,0-1.23.647V3.732a1.533,1.533,0,0,0,1.191.637c.863,0,1.248-.522,1.248-1.693C3.607,1.625,3.166,1.022,2.4,1.022Z" transform="translate(101.144 1.918)" fill="#fff"/><path d="M2.465,5.364A2.413,2.413,0,0,1,0,2.683,2.413,2.413,0,0,1,2.465,0a2.464,2.464,0,0,1,1.7.626,2.725,2.725,0,0,1,.77,2.057A2.415,2.415,0,0,1,2.465,5.364Zm0-4.335c-.852,0-1.284.556-1.284,1.653,0,1.081.456,1.676,1.284,1.676.854,0,1.287-.564,1.287-1.676C3.752,1.632,3.283,1.029,2.465,1.029Z" transform="translate(106.292 1.911)" fill="#fff"/><path d="M0,0H1.181V7.158H0Z" transform="translate(111.919 0)" fill="#fff"/><path d="M2.523,5.349h-.1A2.369,2.369,0,0,1,.739,4.72,2.744,2.744,0,0,1,0,2.683,2.44,2.44,0,0,1,2.409,0C3.238,0,4.63.361,4.63,2.776v.281H1.172a1.279,1.279,0,0,0,.375.984,1.228,1.228,0,0,0,.872.361c.035,0,.071,0,.106,0h.069a1.831,1.831,0,0,0,1.351-.6l.62.62A2.719,2.719,0,0,1,2.523,5.349ZM2.4.979a1.2,1.2,0,0,0-1.211,1.2H3.554C3.487,1.383,3.1.979,2.4.979Z" transform="translate(113.793 1.911)" fill="#fff"/><path d="M0,0H.99V1.006H0Z" transform="translate(119.212 6.142)" fill="#fff"/></g></g></svg>