<?xml version="1.0" encoding="utf-8"?>
<!-- Generator: Adobe Illustrator 23.0.3, SVG Export Plug-In . SVG Version: 6.00 Build 0)  -->
<svg version="1.1" id="Layer_1" xmlns="http://www.w3.org/2000/svg" xmlns:xlink="http://www.w3.org/1999/xlink" x="0px" y="0px"
	 viewBox="0 0 239 138" style="enable-background:new 0 0 239 138;" xml:space="preserve">
<style type="text/css">
	.st0{fill:#F29400;}
	.st1{fill:#66C5EC;}
</style>
<g id="logo_ruhr_kongferenz" transform="translate(0)">
	<g id="Group-2" transform="translate(0 9)">
		<path id="Path-3" class="st0" d="M119.4,40.06H86.77c-4.65,0.36-8.63,3.46-10.12,7.87l-9.49,29.44c-1.33,2.71-0.22,5.98,2.49,7.31
			c0.8,0.39,1.69,0.59,2.58,0.56h20.8c-2.84,9.17-8.83,17.03-16.91,22.21l0,0c-0.89,0.55-1.46,1.51-1.5,2.56
			c0.33,2.2,2.34,3.74,4.55,3.48c0.26,0,0.52-0.02,0.78-0.07h0.22c22.39-3.27,35.03-36.62,36.17-40.23l0,0l8.13-25.22
			C125.85,43.58,123.59,40.06,119.4,40.06z"/>
		<path id="Path-4" class="st0" d="M70.85,47.93c1.34-2.7,0.24-5.97-2.46-7.3c-0.81-0.4-1.7-0.6-2.61-0.57H33.13
			c-4.65,0.36-8.63,3.46-10.12,7.87l-9.49,29.44c-1.33,2.71-0.22,5.98,2.49,7.31c0.8,0.39,1.69,0.59,2.58,0.56h20.84
			c-2.85,9.17-8.84,17.03-16.93,22.21l0,0c-0.89,0.55-1.45,1.51-1.5,2.56c0.33,2.2,2.34,3.74,4.55,3.48c0.26,0,0.52-0.02,0.78-0.07
			h0.22c22.39-3.27,35.05-36.62,36.19-40.23l0,0L70.85,47.93z"/>
	</g>
	<g id="Group" transform="translate(31)">
		<path id="Path" class="st1" d="M129.33,44.45h12.2c11.24,0,7.17,11.47,7.17,11.47l-8.19,23.05c-2.11,6.31-7.97,10.6-14.62,10.71
			h-25.55c-1.12-0.03-2-0.97-1.97-2.09l3.43-33.46c0.35-2.97,1.21-5.86,2.53-8.54c1.16-2.36,6.5-7.6,8.25-10.95
			c2.82-6.01,5.26-12.19,7.3-18.51c0.31-0.67,0.99-1.11,1.73-1.12h1.96c2.77,0.01,5.36,1.4,6.92,3.69c1.62,2.36,2.09,5.33,1.28,8.08
			l-4.31,14.99c-0.17,0.63-0.06,1.3,0.31,1.84c0.36,0.52,0.94,0.83,1.57,0.84L129.33,44.45z"/>
		<path id="Path-2" class="st1" d="M181.92,44.45h12.19c11.24,0,7.18,11.47,7.18,11.47l-8.17,23.03
			c-2.11,6.3-7.97,10.59-14.62,10.71h-25.59c-0.53,0-1.03-0.22-1.39-0.61c-0.37-0.4-0.58-0.93-0.57-1.48l3.41-33.46
			c0.36-2.97,1.21-5.86,2.53-8.54c1.16-2.36,6.49-7.6,8.25-10.95c2.82-6.01,5.27-12.18,7.32-18.5c0.31-0.66,0.96-1.1,1.69-1.12h1.91
			c2.77,0.01,5.37,1.39,6.93,3.68c1.62,2.36,2.1,5.33,1.28,8.08l-4.24,14.99c-0.17,0.63-0.06,1.3,0.31,1.84
			C180.7,44.12,181.28,44.43,181.92,44.45z"/>
	</g>
</g>
</svg>
