<svg xmlns="http://www.w3.org/2000/svg" width="191.089" height="59.091" viewBox="0 0 191.089 59.091">
  <g id="_574001_LOGO_Ruhr-Konferenz_RGB_WEB_Copy" data-name="574001_LOGO_Ruhr-Konferenz_RGB_WEB Copy" transform="translate(-0.001)">
    <g id="Group" transform="translate(37.308)">
      <path id="Path" d="M10.2,9.286h4.02c3.7,0,2.362,3.617,2.362,3.617l-2.7,7.268a5.152,5.152,0,0,1-4.816,3.377H.65A.654.654,0,0,1,0,22.889L1.129,12.337a8.053,8.053,0,0,1,.833-2.693C2.345,8.9,4.1,7.247,4.678,6.192A48.936,48.936,0,0,0,7.086.355.645.645,0,0,1,7.661,0h.646a2.809,2.809,0,0,1,2.275,1.164A2.888,2.888,0,0,1,11,3.71L9.582,8.442a.665.665,0,0,0,.1.579.647.647,0,0,0,.518.265Z" transform="translate(0.025 0)" fill="#66c5ec"/>
      <path id="Path-2" data-name="Path" d="M10.2,9.286h4.016c3.7,0,2.366,3.617,2.366,3.617l-2.691,7.264a5.156,5.156,0,0,1-4.82,3.377H.646a.642.642,0,0,1-.458-.193A.659.659,0,0,1,0,22.885L1.125,12.333A8.125,8.125,0,0,1,1.958,9.64C2.341,8.9,4.1,7.243,4.674,6.188A48.935,48.935,0,0,0,7.086.355.641.641,0,0,1,7.645,0h.633a2.809,2.809,0,0,1,2.278,1.162,2.888,2.888,0,0,1,.422,2.548l-1.4,4.731a.665.665,0,0,0,.1.579A.647.647,0,0,0,10.2,9.286Z" transform="translate(17.352 0)" fill="#66c5ec"/>
    </g>
    <g id="Group-2" data-name="Group" transform="translate(0 10)">
      <path id="Path-3" data-name="Path" d="M17.044,0H6.48A3.745,3.745,0,0,0,3.2,2.478L.133,11.763a1.726,1.726,0,0,0,1.64,2.482H8.509a12.9,12.9,0,0,1-5.476,7h0a.989.989,0,0,0-.485.806c0,.608.661,1.1,1.473,1.1a1.588,1.588,0,0,0,.251-.021h.071c7.25-1.034,11.342-11.552,11.71-12.683h0l2.627-7.952A1.731,1.731,0,0,0,17.044,0Z" transform="translate(17.367 0.106)" fill="#f29400"/>
      <path id="Path-4" data-name="Path" d="M18.692,2.478A1.723,1.723,0,0,0,17.052,0H6.48A3.744,3.744,0,0,0,3.2,2.478L.133,11.763a1.726,1.726,0,0,0,1.64,2.482H8.521a12.9,12.9,0,0,1-5.481,7h0a.993.993,0,0,0-.481.806c0,.608.657,1.1,1.473,1.1a1.659,1.659,0,0,0,.251-.021h.071C11.6,22.1,15.7,11.578,16.065,10.446h0Z" transform="translate(0.001 0.106)" fill="#f29400"/>
    </g>
    <g id="Group-3" data-name="Group" transform="translate(37.308 27.273)">
      <path id="Shape" d="M3.57,16.274H0V0H6.176c4.352,0,6.467,1.648,6.467,5.038a4.337,4.337,0,0,1-3.42,4.639l3.666,6.58H9.065L5.648,10.138H3.57v6.135Zm0-13.354V7.361l2.453,0c2.164,0,3.088-.67,3.088-2.241S8.216,2.92,6.023,2.92Z" transform="translate(0.17 0.37)"/>
      <path id="Path-5" data-name="Path" d="M0,8.542V0H3.579V7.51c0,1.053.416,1.624,1.4,1.624A3.981,3.981,0,0,0,7.556,7.945V0h3.579V11.721H7.556V9.87a5.138,5.138,0,0,1-4.09,2.056C1.446,11.951,0,10.96,0,8.542Z" transform="translate(14.501 4.935)"/>
      <path id="Path-6" data-name="Path" d="M0,0H3.579V6.4A5.087,5.087,0,0,1,7.668,4.31c2.02,0,3.466.991,3.466,3.409v8.554H7.556V8.842c0-1.057-.416-1.608-1.38-1.608A4.04,4.04,0,0,0,3.579,8.4v7.871H0Z" transform="translate(27.901 0.37)"/>
      <path id="Path-7" data-name="Path" d="M0,.244H3.579V2.2h0a4.5,4.5,0,0,1,4-2.2h.108L7.648,3.148q-.466-.056-.935-.066a3.962,3.962,0,0,0-3.155,1.6v7.279H0Z" transform="translate(41.189 4.691)"/>
      <path id="Path-8" data-name="Path" d="M0,0H4.988V1.316H0Z" transform="translate(49.813 9.081)"/>
      <path id="Path-9" data-name="Path" d="M0,0H1.579V8.776L9.447,0H11.38L5.736,6.169,12.2,16.286H10.378L4.667,7.366,1.579,10.709v5.564H0Z" transform="translate(57.498 0.37)"/>
      <path id="Shape-2" data-name="Shape" d="M5.3,12.05a5.059,5.059,0,0,1-3.726-1.571A6.336,6.336,0,0,1,0,6.025,6.341,6.341,0,0,1,1.573,1.561,5.077,5.077,0,0,1,5.312,0,5.031,5.031,0,0,1,9.034,1.561,6.374,6.374,0,0,1,10.59,6.025a6.355,6.355,0,0,1-1.569,4.464A5.04,5.04,0,0,1,5.3,12.05ZM5.324,1.3C3.029,1.3,1.546,3.142,1.546,6c0,2.886,1.483,4.75,3.778,4.75,2.267,0,3.732-1.865,3.732-4.75h.008a5.725,5.725,0,0,0-.9-3.231A3.317,3.317,0,0,0,5.324,1.3Z" transform="translate(70.241 4.836)"/>
      <path id="Path-10" data-name="Path" d="M0,.23H1.542V2.056A6.45,6.45,0,0,1,6.01,0C8.321,0,9.5,1.275,9.5,3.43v8.377H7.963V3.726c0-1.645-.732-2.418-2.332-2.418a5.93,5.93,0,0,0-4.09,2.023v8.488H.008Z" transform="translate(82.83 4.824)"/>
      <path id="Path-11" data-name="Path" d="M2.045,6H0V4.7H2.045V2.969C2.045,1.012,3.18,0,5.4,0c.287,0,.686.021.885.045V1.32a7.005,7.005,0,0,0-.777-.045c-1.131,0-1.933.411-1.933,1.67V4.7H6.155V6H3.579V16.286H2.045Z" transform="translate(94.119 0.35)"/>
      <path id="Shape-3" data-name="Shape" d="M5.133,12.05a4.829,4.829,0,0,1-3.586-1.537A6.486,6.486,0,0,1,0,6C0,1.878,2.661,0,5.133,0,8.078,0,9.908,2.308,9.908,6.025v.284H1.529c.023,2.669,1.506,4.462,3.691,4.462A3.958,3.958,0,0,0,8.865,8.661l.957.749A5.175,5.175,0,0,1,5.133,12.05ZM5.1,1.275c-1.515,0-3.245,1-3.554,3.824H8.42C8.246,2.67,7.035,1.275,5.1,1.275Z" transform="translate(101.076 4.836)"/>
      <path id="Path-12" data-name="Path" d="M.012.222H1.546V2.509h.046A5.163,5.163,0,0,1,6.234,0H6.5L6.347,1.411l-.478-.025A4.743,4.743,0,0,0,1.534,4.265v7.542H0Z" transform="translate(113.416 4.832)"/>
      <path id="Shape-4" data-name="Shape" d="M5.133,12.05a4.83,4.83,0,0,1-3.59-1.537A6.493,6.493,0,0,1,0,6C0,1.878,2.661,0,5.133,0c2.948,0,4.78,2.308,4.78,6.025v.284H1.534c.023,2.669,1.506,4.462,3.691,4.462A3.958,3.958,0,0,0,8.87,8.661l.956.749A5.176,5.176,0,0,1,5.133,12.05ZM5.1,1.275c-1.515,0-3.244,1-3.553,3.824H8.425C8.25,2.67,7.038,1.275,5.1,1.275Z" transform="translate(120.449 4.836)"/>
      <path id="Path-13" data-name="Path" d="M0,.23H1.534V2.056A6.441,6.441,0,0,1,6,0C8.313,0,9.489,1.275,9.489,3.43v8.377H7.955V3.726c0-1.645-.732-2.418-2.332-2.418a5.922,5.922,0,0,0-4.09,2.023v8.488H0Z" transform="translate(132.805 4.824)"/>
      <path id="Path-14" data-name="Path" d="M0,10.619,7.132,1.275H.578V0H9.065V.991L1.933,10.335H9.377v1.234H0Z" transform="translate(144.405 5.054)"/>
    </g>
    <g id="Group-4" data-name="Group" transform="translate(37.308 47.273)">
      <path id="Path-15" data-name="Path" d="M0,0H1.982L4.359,7.146h.025L6.69,0H8.71V9.011H7.257V2.288H7.232A18.947,18.947,0,0,1,6.7,4.128L4.971,9.011H3.639L1.911,4.128a15.586,15.586,0,0,1-.541-1.9H1.345V9.011H0Z" transform="translate(0.171 0.371)" fill="#99999a"/>
      <path id="Shape-5" data-name="Shape" d="M3.181,6.734l-.108,0H3.051a3.023,3.023,0,0,1-2.12-.791A3.454,3.454,0,0,1,0,3.377,3.074,3.074,0,0,1,3.039,0,2.6,2.6,0,0,1,4.974.753a3.843,3.843,0,0,1,.863,2.741v.355H1.478a1.611,1.611,0,0,0,.473,1.239,1.559,1.559,0,0,0,1.1.455c.044,0,.088,0,.132-.006l.085,0a2.3,2.3,0,0,0,1.7-.758l.783.781A3.424,3.424,0,0,1,3.181,6.734Zm-.154-5.5A1.518,1.518,0,0,0,1.5,2.743H4.48C4.4,1.741,3.907,1.232,3.027,1.232Z" transform="translate(9.875 2.777)" fill="#99999a"/>
      <path id="Path-16" data-name="Path" d="M0,.114H1.49V1A3.139,3.139,0,0,1,3.822,0,1.728,1.728,0,0,1,5.658,1.95V6.593H4.168V2.33c0-.718-.3-1.047-.949-1.047a2.58,2.58,0,0,0-1.728.844V6.6H0Z" transform="translate(16.528 2.802)" fill="#99999a"/>
      <path id="Path-17" data-name="Path" d="M0,5.69l.8-.912a3.131,3.131,0,0,0,2.007.768c.791,0,1.274-.207,1.274-.743s-.666-.684-1.42-.853C1.574,3.693.262,3.4.262,1.9.262.772,1.224,0,2.631,0A3.715,3.715,0,0,1,5.25.916l-.712.975a3.177,3.177,0,0,0-1.8-.7c-.833,0-1.082.291-1.082.658,0,.523.637.68,1.395.844,1.091.245,2.427.528,2.427,2.034,0,1.368-1.216,2-2.669,2A3.989,3.989,0,0,1,0,5.69Z" transform="translate(22.811 2.803)" fill="#99999a"/>
      <path id="Path-18" data-name="Path" d="M0,3.377A3.027,3.027,0,0,1,3.06,0,2.592,2.592,0,0,1,5.7,1.887l-1.249.452A1.4,1.4,0,0,0,3.039,1.254c-.833,0-1.553.561-1.553,2.11,0,1.376.554,2.11,1.528,2.11A1.416,1.416,0,0,0,4.5,4.356L5.729,4.8a2.806,2.806,0,0,1-2.752,1.9C1.436,6.707,0,5.74,0,3.377Z" transform="translate(28.648 2.777)" fill="#99999a"/>
      <path id="Path-19" data-name="Path" d="M0,0H1.49V3.427a3.139,3.139,0,0,1,2.331-1,1.728,1.728,0,0,1,1.836,1.95V9.024H4.168V4.761c0-.718-.3-1.047-.949-1.047a2.58,2.58,0,0,0-1.728.844v4.47H0Z" transform="translate(35.072 0.371)" fill="#99999a"/>
      <path id="Shape-6" data-name="Shape" d="M3.178,6.734l-.105,0H3.051a3.023,3.023,0,0,1-2.12-.791A3.454,3.454,0,0,1,0,3.377,3.074,3.074,0,0,1,3.039,0,2.6,2.6,0,0,1,4.974.753a3.843,3.843,0,0,1,.863,2.741v.355H1.478a1.609,1.609,0,0,0,.471,1.239,1.554,1.554,0,0,0,1.1.455c.044,0,.088,0,.132-.006l.085,0a2.31,2.31,0,0,0,1.7-.758l.783.781A3.435,3.435,0,0,1,3.178,6.734Zm-.151-5.5A1.518,1.518,0,0,0,1.5,2.743H4.48C4.4,1.741,3.907,1.232,3.027,1.232Z" transform="translate(41.475 2.777)" fill="#99999a"/>
      <path id="Path-20" data-name="Path" d="M0,.114H1.49V1A3.139,3.139,0,0,1,3.822,0,1.728,1.728,0,0,1,5.658,1.95V6.593H4.168V2.33c0-.718-.3-1.047-.949-1.047a2.572,2.572,0,0,0-1.728.844V6.6H0Z" transform="translate(48.128 2.802)" fill="#99999a"/>
      <path id="Path-21" data-name="Path" d="M0,.135H.579V1.194A3.461,3.461,0,0,1,2.943,0,1.584,1.584,0,0,1,4.7,1.207,3.713,3.713,0,0,1,7.136,0,1.65,1.65,0,0,1,8.964,1.891V6.534H8.389V1.963c0-.975-.35-1.452-1.311-1.452a3.389,3.389,0,0,0-2.306,1.22v4.8H4.192V1.963C4.192.988,3.859.511,2.885.511A3.38,3.38,0,0,0,.579,1.731v4.8H0Z" transform="translate(55.069 2.853)" fill="#99999a"/>
      <path id="Shape-7" data-name="Shape" d="M1.777,6.639C.664,6.639,0,6.047,0,5.056A1.844,1.844,0,0,1,.925,3.463a9.044,9.044,0,0,1,3.413-1.1V1.975A1.28,1.28,0,0,0,2.968.51,3.446,3.446,0,0,0,.517,1.57L.179,1.207A3.856,3.856,0,0,1,2.968,0h.013A1.745,1.745,0,0,1,4.913,1.938V4.946A4.556,4.556,0,0,0,5.092,6.53H4.48a3.172,3.172,0,0,1-.142-.95A3.84,3.84,0,0,1,1.777,6.639ZM4.338,2.8a8.3,8.3,0,0,0-3.027.977,1.421,1.421,0,0,0-.72,1.239c0,.706.455,1.111,1.249,1.111a3.564,3.564,0,0,0,2.5-1.123Z" transform="translate(65.136 2.853)" fill="#99999a"/>
      <path id="Path-22" data-name="Path" d="M0,3.339C0,1.1,1.311,0,2.727,0A2.472,2.472,0,0,1,5.071,1.688l-.491.27A1.946,1.946,0,0,0,2.706.494c-.97,0-2.127.734-2.127,2.815,0,1.79.949,2.824,2.082,2.824.962,0,1.465-.5,1.944-1.473l.458.232a2.579,2.579,0,0,1-2.44,1.756C1.2,6.665,0,5.373,0,3.339Z" transform="translate(71.152 2.853)" fill="#99999a"/>
      <path id="Path-23" data-name="Path" d="M0,0H.575V3.676a3.636,3.636,0,0,1,2.44-1.194A1.705,1.705,0,0,1,4.925,4.373V9.016H4.347V4.444c0-.975-.416-1.452-1.378-1.452A3.476,3.476,0,0,0,.575,4.212v4.8H0Z" transform="translate(77.351 0.371)" fill="#99999a"/>
      <path id="Shape-8" data-name="Shape" d="M2.728,6.666H2.64A2.4,2.4,0,0,1,.794,5.785,3.738,3.738,0,0,1,0,3.326C0,1.041,1.387,0,2.677,0c1.518,0,2.5,1.286,2.5,3.275v.089H.574a3.339,3.339,0,0,0,.591,2.008,1.885,1.885,0,0,0,1.524.778A2.154,2.154,0,0,0,4.721,4.824l.416.266A2.649,2.649,0,0,1,2.728,6.666ZM2.673.51C1.822.51.766,1.13.591,2.875H4.58C4.486,1.395,3.773.51,2.673.51Z" transform="translate(83.392 2.853)" fill="#99999a"/>
      <path id="Path-24" data-name="Path" d="M0,.135H.579V1.194A3.636,3.636,0,0,1,3.018,0,1.705,1.705,0,0,1,4.929,1.891V6.534H4.351V1.963C4.351.988,3.934.511,2.968.511A3.476,3.476,0,0,0,.575,1.731v4.8H0Z" transform="translate(89.741 2.853)" fill="#99999a"/>
      <path id="Path-25" data-name="Path" d="M0,0H1.986L4.363,7.146h.025L6.69,0H8.71V9.011H7.257V2.288H7.232A18.947,18.947,0,0,1,6.7,4.128L4.971,9.011H3.639L1.919,4.128a16.44,16.44,0,0,1-.537-1.9H1.357V9.011H0Z" transform="translate(96.144 0.371)" fill="#99999a"/>
      <path id="Shape-9" data-name="Shape" d="M3.178,6.734l-.105,0H3.051a3.023,3.023,0,0,1-2.12-.791A3.454,3.454,0,0,1,0,3.377,3.074,3.074,0,0,1,3.039,0,2.6,2.6,0,0,1,4.974.753a3.843,3.843,0,0,1,.863,2.741v.355H1.478a1.609,1.609,0,0,0,.471,1.239,1.554,1.554,0,0,0,1.1.455c.044,0,.088,0,.132-.006l.085,0a2.31,2.31,0,0,0,1.7-.758l.783.781A3.435,3.435,0,0,1,3.178,6.734Zm-.151-5.5A1.518,1.518,0,0,0,1.5,2.743H4.48C4.4,1.741,3.907,1.232,3.027,1.232Z" transform="translate(105.853 2.777)" fill="#99999a"/>
      <path id="Path-26" data-name="Path" d="M1.1,7.028V3.444H0V2.254H1.1V0H2.585V2.254H4.23v1.19H2.585v3.2c0,.7.2.975.937.975a2.31,2.31,0,0,0,.637-.084V8.72A6.983,6.983,0,0,1,3.077,8.8C1.453,8.8,1.1,8.2,1.1,7.028Z" transform="translate(111.907 0.663)" fill="#99999a"/>
      <path id="Path-27" data-name="Path" d="M0,.129H1.478V1.188H1.5A2.488,2.488,0,0,1,3.8.006h.1l-.05,1.376a3.9,3.9,0,0,0-.4-.025A2.16,2.16,0,0,0,1.478,2.5V6.6H0Z" transform="translate(116.865 2.788)" fill="#99999a"/>
      <path id="Shape-10" data-name="Shape" d="M3.11,6.754a3.092,3.092,0,0,1-2.136-.8A3.42,3.42,0,0,1,0,3.377,3.041,3.041,0,0,1,3.11,0,3.113,3.113,0,0,1,5.253.788a3.425,3.425,0,0,1,.972,2.589A3.043,3.043,0,0,1,3.11,6.754Zm0-5.458c-1.075,0-1.62.7-1.62,2.081,0,1.361.575,2.11,1.62,2.11,1.074,0,1.619-.71,1.619-2.11a2.305,2.305,0,0,0-.536-1.667A1.468,1.468,0,0,0,3.11,1.3Z" transform="translate(120.737 2.777)" fill="#99999a"/>
      <path id="Shape-11" data-name="Shape" d="M1.474,9.032H0V.131H1.474V.976A2.543,2.543,0,0,1,3.479,0h.026c1.58,0,2.523,1.251,2.523,3.347,0,2.122-.994,3.339-2.727,3.339H3.286a2.43,2.43,0,0,1-1.811-.815v3.16ZM3.027,1.288A2.15,2.15,0,0,0,1.474,2.1V4.7a1.933,1.933,0,0,0,1.5.8c1.088,0,1.573-.657,1.573-2.131C4.55,2.046,4,1.288,3.027,1.288Z" transform="translate(127.773 2.786)" fill="#99999a"/>
      <path id="Shape-12" data-name="Shape" d="M3.11,6.754A3.041,3.041,0,0,1,0,3.377,3.041,3.041,0,0,1,3.11,0,3.113,3.113,0,0,1,5.253.788a3.425,3.425,0,0,1,.972,2.589A3.043,3.043,0,0,1,3.11,6.754Zm0-5.458c-1.075,0-1.62.7-1.62,2.081,0,1.361.575,2.11,1.62,2.11,1.077,0,1.624-.71,1.624-2.11C4.734,2.054,4.142,1.3,3.11,1.3Z" transform="translate(134.268 2.777)" fill="#99999a"/>
      <path id="Path-28" data-name="Path" d="M0,0H1.49V9.011H0Z" transform="translate(141.366 0.371)" fill="#99999a"/>
      <path id="Shape-13" data-name="Shape" d="M3.182,6.734l-.105,0H3.055A2.99,2.99,0,0,1,.931,5.942,3.452,3.452,0,0,1,0,3.377,3.074,3.074,0,0,1,3.039,0c1.046,0,2.8.454,2.8,3.495v.355H1.478a1.611,1.611,0,0,0,.473,1.239,1.559,1.559,0,0,0,1.1.455c.044,0,.088,0,.132-.006l.085,0a2.31,2.31,0,0,0,1.7-.758l.783.781A3.435,3.435,0,0,1,3.182,6.734Zm-.151-5.5A1.518,1.518,0,0,0,1.5,2.743H4.484C4.4,1.741,3.911,1.232,3.031,1.232Z" transform="translate(143.731 2.777)" fill="#99999a"/>
      <path id="Path-29" data-name="Path" d="M0,0H1.249V1.266H0Z" transform="translate(150.567 8.104)" fill="#99999a"/>
    </g>
  </g>
</svg>
