<svg xmlns="http://www.w3.org/2000/svg" xmlns:xlink="http://www.w3.org/1999/xlink" width="107.457" height="29.904" viewBox="0 0 107.457 29.904">
  <defs>
    <clipPath id="clip-path">
      <path id="Clip_4" data-name="Clip 4" d="M0,0H28.309V29.9H0Z" transform="translate(0.026 0.03)" fill="none"/>
    </clipPath>
    <clipPath id="clip-path-2">
      <path id="Clip_12" data-name="Clip 12" d="M0,0H3.923V4.879H0Z" transform="translate(0 0.05)" fill="none"/>
    </clipPath>
    <clipPath id="clip-path-3">
      <path id="Clip_15" data-name="Clip 15" d="M0,29.9H107.456V0H0Z" transform="translate(0 0.03)" fill="none"/>
    </clipPath>
  </defs>
  <g id="Group_52" data-name="Group 52" transform="translate(0 -0.066)">
    <g id="Group_10" data-name="Group 10" transform="translate(79.121 0.036)">
      <path id="Fill_1" data-name="Fill 1" d="M14.014,29.623A14.053,14.053,0,0,1,0,15.536V0H28.028V15.536A14.053,14.053,0,0,1,14.014,29.623" transform="translate(0.167 0.171)" fill="#fefefe"/>
      <g id="Group_5" data-name="Group 5">
        <path id="Clip_4-2" data-name="Clip 4" d="M0,0H28.309V29.9H0Z" transform="translate(0.026 0.03)" fill="none"/>
        <g id="Group_5-2" data-name="Group 5" clip-path="url(#clip-path)">
          <path id="Fill_3" data-name="Fill 3" d="M14.154,29.9A14.024,14.024,0,0,1,4.146,25.736,14.172,14.172,0,0,1,0,15.676V0h28.31V15.676a14.171,14.171,0,0,1-4.147,10.06A14.026,14.026,0,0,1,14.154,29.9ZM.527.527V15.676a13.627,13.627,0,1,0,27.254,0V.527Z" transform="translate(0.026 0.03)" fill="#131413"/>
        </g>
      </g>
      <path id="Fill_6" data-name="Fill 6" d="M12.924,27.662h0a1.406,1.406,0,0,1-.528-.529.822.822,0,0,0,.53-.284.846.846,0,0,0,.527.28,1.4,1.4,0,0,1-.529.533Zm2.468-1.939h0a.82.82,0,0,0-.106-.591.848.848,0,0,0,.43-.415,1.408,1.408,0,0,1,.343.669,1.4,1.4,0,0,1-.665.338Zm-4.936,0h0a1.4,1.4,0,0,1-.666-.338,1.4,1.4,0,0,1,.341-.666.82.82,0,0,0,.43.416.818.818,0,0,0-.1.587ZM6.286,25.6h0A13.039,13.039,0,0,1,1.67,20.84,13.8,13.8,0,0,0,3.545,18.56a12.221,12.221,0,0,0,1.067-2.508,9.87,9.87,0,0,1,1.412-3A7.4,7.4,0,0,1,8.2,11.373,6.993,6.993,0,0,0,10.339,9.7a10.987,10.987,0,0,0,1.316-2.625,14.666,14.666,0,0,1,.917-2.022v9.4a13.046,13.046,0,0,1-1.731,6.5A13.048,13.048,0,0,1,6.287,25.6Zm6.637-.362a.872.872,0,1,1,.872-.872A.873.873,0,0,1,12.923,25.237Zm-2.052-2.8h0a1.4,1.4,0,0,1,.115-.741,1.4,1.4,0,0,1,.154-.008,1.416,1.416,0,0,1,.584.127.823.823,0,0,0-.262.542.77.77,0,0,0-.182-.022.9.9,0,0,0-.408.1Zm4.106,0h0a.889.889,0,0,0-.407-.1.757.757,0,0,0-.188.024.846.846,0,0,0-.262-.537,1.413,1.413,0,0,1,.743-.12,1.407,1.407,0,0,1,.115.737ZM.125,16.259v0A13.164,13.164,0,0,1,0,14.446V0H10.691c-.3.325-.736.818-1.139,1.357A9.02,9.02,0,0,0,8.275,4.383a8.743,8.743,0,0,1-1.3,3.042A7.506,7.506,0,0,1,4.734,9.182a7.061,7.061,0,0,0-2.076,1.6A9.256,9.256,0,0,0,1.332,13.6,9.875,9.875,0,0,1,.127,16.257Z" transform="translate(1.257 1.261)" fill="#131413"/>
      <path id="Fill_8" data-name="Fill 8" d="M3.372,26.8a.572.572,0,0,1-.627-.5.226.226,0,0,0-.282,0,.572.572,0,0,1-.627.5,1.4,1.4,0,0,1-.795-.283,1.2,1.2,0,0,1-.554-.963A.542.542,0,0,1,.806,25.1.224.224,0,0,0,.72,24.83a.7.7,0,0,1-.11.009.532.532,0,0,1-.445-.23,1.236,1.236,0,0,1-.086-1.066C.237,23.057.6,22.7.954,22.7a.552.552,0,0,1,.4.178h.011a.227.227,0,0,0,.216-.166.542.542,0,0,1,.01-.554,1.2,1.2,0,0,1,1.015-.454,1.2,1.2,0,0,1,1.014.454.542.542,0,0,1,.01.554.227.227,0,0,0,.216.166h.011a.552.552,0,0,1,.4-.178c.349,0,.718.354.877.841a1.238,1.238,0,0,1-.087,1.066.532.532,0,0,1-.445.229.7.7,0,0,1-.111-.009A.224.224,0,0,0,4.4,25.1a.542.542,0,0,1,.318.454,1.2,1.2,0,0,1-.554.963A1.4,1.4,0,0,1,3.372,26.8ZM2.6,23a1.364,1.364,0,1,0,1.364,1.364A1.365,1.365,0,0,0,2.6,23Zm6.638,2.6h0A13.006,13.006,0,0,1,2.957,14.445V0H15.529V14.445A13,13,0,0,1,9.244,25.6Zm2.168-5.007h0a1.313,1.313,0,0,0-.471.849,1.467,1.467,0,0,0,.626.118,2.923,2.923,0,0,0,.859-.139v-.5a.307.307,0,0,1,.31-.328,5.817,5.817,0,0,1,.384-1.858c.195-.54.387-.979.442-1.1a4.107,4.107,0,0,1-.646-2.284,2.973,2.973,0,0,0,.838-2.146c-.09-.68-.593-1.321-1.682-2.144a3.578,3.578,0,0,1-1.19-3.045l.005-.07A2.881,2.881,0,0,1,11.939,7.7a2.589,2.589,0,0,1-.6-.715,7.484,7.484,0,0,0,1.626-.509A2.52,2.52,0,0,1,12,5.338a2.507,2.507,0,0,0,.807.131,3.075,3.075,0,0,0,.82-.117,2.406,2.406,0,0,1-.659-.763A3.876,3.876,0,0,0,12.3,3.75a3.579,3.579,0,0,0,.946-.314,2.759,2.759,0,0,0-1.758-1.083A2.583,2.583,0,0,0,12.4,1.7c-.275.028-.544.041-.8.041a9.453,9.453,0,0,1-1.433-.122c-.139-.02-.27-.039-.388-.052a1.13,1.13,0,0,1,.035.449.281.281,0,0,1-.279.274.208.208,0,0,1-.175-.078l.007-.018a.754.754,0,0,0,0-.639,1.281,1.281,0,0,0-.61-.606,3.185,3.185,0,0,1-.048.449,2.829,2.829,0,0,0-.05.593,6.529,6.529,0,0,0-.828.5L6.362,3.653a.545.545,0,0,0-.23.38.187.187,0,0,1-.006.374.287.287,0,0,0,.3.3l.2-.144a.134.134,0,0,1,0-.019c0-.1.13-.188.289-.188s.289.084.289.188-.13.188-.289.188l-.053,0-.211.153h0A1.517,1.517,0,0,0,7.189,5,.479.479,0,0,0,7.7,4.646c.064-.212.309-.255.658-.255.123,0,.26.006.4.011.174.007.353.014.545.014.326,0,.547-.093.716-.571a.416.416,0,0,1,.08-.009.2.2,0,0,1,.185.093.288.288,0,0,1,.01.26A1.012,1.012,0,0,1,9.264,4.8,3.206,3.206,0,0,1,8.046,6.35,3.207,3.207,0,0,0,6.565,8.726L4.859,9.3l-.467.567a4.233,4.233,0,0,1,.614,1.492,2.131,2.131,0,0,0,.2.593.43.43,0,0,1,.1-.011.424.424,0,0,1,.424.424c0,.023,0,.046,0,.071s0,.04,0,.062a1.559,1.559,0,0,0,.851.477,1.991,1.991,0,0,0-.019-1.417h-.5v-.313a.982.982,0,0,1-.64-.665.737.737,0,0,1,.238-.665l2.1.113h.031A.694.694,0,0,0,8.4,9.558a.22.22,0,0,1,.071-.012.189.189,0,0,1,.168.107.3.3,0,0,1-.023.307,1.021,1.021,0,0,1-.829.456H7.736l-.845-.046A3.357,3.357,0,0,0,8.57,11.908a3.338,3.338,0,0,1,1.7,1.58c0,.8.084,2.2.645,2.661,1.824,1.491,2.094,1.8.946,3.845a.424.424,0,0,1-.384.6.407.407,0,0,1-.066-.005ZM5.986,17.676h0a1.378,1.378,0,0,0-.477.849,1.465,1.465,0,0,0,.615.121,2.59,2.59,0,0,0,.8-.139v-.5h.348a3.806,3.806,0,0,1,1.639-.2c.45,0,.824.017.84.017,0-1.544.552-1.982.558-1.986a5.277,5.277,0,0,1-.428-2.262,2.266,2.266,0,0,0-.533-.734A1.374,1.374,0,0,0,8.24,14.329a3.746,3.746,0,0,0,.4,1.545,3.256,3.256,0,0,1,.354,1.313H6.537a.511.511,0,0,1,.006.075.424.424,0,0,1-.424.423c-.023,0-.046,0-.071,0l-.062,0Zm6.9-9.971a.767.767,0,0,0-.447.134.7.7,0,0,1,.443.619,1.724,1.724,0,0,1-.206.64,2.62,2.62,0,0,0-.307,1.084c0,.769.585,1.1,1.1,1.386.421.236.784.44.784.831a.34.34,0,0,1-.236.346.847.847,0,0,0,.269.044.683.683,0,0,0,.473-.174.8.8,0,0,0,.22-.61,1.591,1.591,0,0,0-.363-.895,1.636,1.636,0,0,1-.373-.929,1.393,1.393,0,0,1,.339-.778,1.775,1.775,0,0,0,.423-1.059A1.66,1.66,0,0,0,13.742,6.78a2.133,2.133,0,0,1-.1,1.372A.8.8,0,0,0,12.89,7.705Zm-8.418-2.2h0a3.875,3.875,0,0,1-.534,1.332,4.033,4.033,0,0,0-.359.737.425.425,0,0,1,.082.064.424.424,0,0,1,0,.6.441.441,0,0,1-.1.076,1.459,1.459,0,0,0,.265.921A1.98,1.98,0,0,0,4.8,8.23l-.343-.363.222-.224a.962.962,0,0,1,.006-.913.738.738,0,0,1,.643-.307l.923,1.716a2.822,2.822,0,0,1,.683-1.274L5.2,5.505H4.471Zm3.614-2.27a.294.294,0,0,1-.27-.147c.027-.171.1-.257.223-.257a.968.968,0,0,1,.479.257s0,0-.007.005A.924.924,0,0,1,8.086,3.236Z" transform="translate(11.576 1.261)" fill="#131413"/>
    </g>
    <g id="Group_51" data-name="Group 51" transform="translate(0 0.036)">
      <g id="Group_13" data-name="Group 13" transform="translate(0 0.857)">
        <path id="Clip_12-2" data-name="Clip 12" d="M0,0H3.923V4.879H0Z" transform="translate(0 0.05)" fill="none"/>
        <g id="Group_13-2" data-name="Group 13" clip-path="url(#clip-path-2)">
          <path id="Fill_11" data-name="Fill 11" d="M1.391,4.88H0V0H1.391A2.215,2.215,0,0,1,3.923,2.42,2.232,2.232,0,0,1,1.391,4.88ZM.824.765V4.141h.64C2.61,4.141,3.1,3.626,3.1,2.42,3.1,1.275,2.59.765,1.451.765Z" transform="translate(0 0.05)" fill="#131413"/>
        </g>
      </g>
      <path id="Clip_15-2" data-name="Clip 15" d="M0,29.9H107.456V0H0Z" transform="translate(0 0.03)" fill="none"/>
      <g clip-path="url(#clip-path-3)">
        <path id="Fill_14" data-name="Fill 14" d="M.992,4.813H.008v-3.5H.992v3.5ZM1,.706H0V0H1V.7Z" transform="translate(4.752 0.973)" fill="#131413"/>
        <path id="Fill_16" data-name="Fill 16" d="M1.688,3.64A1.628,1.628,0,0,1,0,1.82,1.671,1.671,0,0,1,1.669,0C2.131,0,3.2.184,3.2,1.893v.191H.811a.869.869,0,0,0,.936.91,1.271,1.271,0,0,0,.983-.409l.428.422A1.9,1.9,0,0,1,1.688,3.64ZM1.661.66a.826.826,0,0,0-.837.817H2.46C2.412.935,2.144.66,1.661.66Z" transform="translate(6.321 2.219)" fill="#131413"/>
        <path id="Fill_17" data-name="Fill 17" d="M0,0H.824V4.128H3.073v.752H0Z" transform="translate(12.321 0.907)" fill="#131413"/>
        <path id="Fill_18" data-name="Fill 18" d="M.989,3.62A.886.886,0,0,1,0,2.723c0-.8.746-1.278,2.281-1.451V1.167c0-.347-.177-.5-.573-.5a1.878,1.878,0,0,0-1.181.475L.132.633A2.521,2.521,0,0,1,1.82,0c.871,0,1.26.391,1.26,1.266V2.71a2.4,2.4,0,0,0,.1.858H2.361a1.282,1.282,0,0,1-.079-.449A1.674,1.674,0,0,1,.989,3.62Zm1.292-1.8C1.283,1.956.8,2.2.8,2.571c0,.268.178.422.488.422a1.407,1.407,0,0,0,1-.4Z" transform="translate(15.935 2.219)" fill="#131413"/>
        <path id="Fill_19" data-name="Fill 19" d="M0,.066H.818V.541A1.736,1.736,0,0,1,2.1,0,.943.943,0,0,1,3.106,1.055V3.567H2.288V1.259c0-.389-.165-.567-.521-.567a1.419,1.419,0,0,0-.95.455v2.42H0Z" transform="translate(19.906 2.219)" fill="#131413"/>
        <path id="Fill_20" data-name="Fill 20" d="M1.385,4.932C.518,4.932,0,4.261,0,3.138,0,1.978.546,1.312,1.5,1.312a1.336,1.336,0,0,1,1,.442V0H3.31V4.022a2.188,2.188,0,0,0,.105.858H2.578A1.291,1.291,0,0,1,2.5,4.4,1.393,1.393,0,0,1,1.385,4.932Zm.29-2.947c-.589,0-.864.373-.864,1.174,0,.714.3,1.108.838,1.108A1.19,1.19,0,0,0,2.5,3.824V2.42A1.064,1.064,0,0,0,1.675,1.985Z" transform="translate(23.742 0.907)" fill="#131413"/>
        <path id="Fill_21" data-name="Fill 21" d="M1.688,3.64A1.628,1.628,0,0,1,0,1.82,1.671,1.671,0,0,1,1.669,0C2.131,0,3.2.184,3.2,1.893v.191H.811a.869.869,0,0,0,.936.91,1.271,1.271,0,0,0,.983-.409l.428.422A1.9,1.9,0,0,1,1.688,3.64ZM1.661.66a.826.826,0,0,0-.837.817H2.46C2.412.935,2.144.66,1.661.66Z" transform="translate(27.777 2.219)" fill="#131413"/>
        <path id="Fill_22" data-name="Fill 22" d="M0,3.086l.442-.495a1.726,1.726,0,0,0,1.1.415c.435,0,.7-.112.7-.4s-.356-.369-.778-.468C.864,2,.145,1.84.145,1.029.145.415.673,0,1.444,0A2.055,2.055,0,0,1,2.882.495l-.389.528A1.758,1.758,0,0,0,1.5.64C1.055.64.91.8.91,1c0,.284.349.369.765.462.6.132,1.332.284,1.332,1.1,0,.738-.666,1.081-1.464,1.081A2.217,2.217,0,0,1,0,3.086" transform="translate(31.489 2.219)" fill="#131413"/>
        <path id="Fill_23" data-name="Fill 23" d="M0,.066H.811V.64H.824A1.371,1.371,0,0,1,2.084,0h.053L2.11.745C2.07.738,1.939.732,1.892.732a1.188,1.188,0,0,0-1.081.62V3.567H0Z" transform="translate(35.202 2.219)" fill="#131413"/>
        <path id="Fill_24" data-name="Fill 24" d="M1.688,3.64A1.628,1.628,0,0,1,0,1.82,1.671,1.671,0,0,1,1.669,0C2.131,0,3.2.184,3.2,1.893v.191H.811a.87.87,0,0,0,.937.91,1.27,1.27,0,0,0,.982-.409l.428.422A1.9,1.9,0,0,1,1.688,3.64ZM1.661.66a.826.826,0,0,0-.837.817H2.46C2.413.935,2.145.66,1.661.66Z" transform="translate(37.697 2.219)" fill="#131413"/>
        <path id="Fill_25" data-name="Fill 25" d="M1.688,4.926C.584,4.926,0,4.629,0,4.068A.78.78,0,0,1,.573,3.33.459.459,0,0,1,.3,2.9a.832.832,0,0,1,.475-.64A1.155,1.155,0,0,1,.224,1.253,1.3,1.3,0,0,1,1.695,0,1.57,1.57,0,0,1,2.769.369,1.811,1.811,0,0,1,3.64.026v.66H3.625a2.067,2.067,0,0,0-.6.091.892.892,0,0,1,.125.475C3.152,2.01,2.58,2.5,1.695,2.5a1.659,1.659,0,0,1-.488-.073c-.12.067-.178.141-.178.224,0,.137.09.184.4.211l.62.04c1.025.065,1.444.342,1.444.956C3.495,4.536,2.836,4.926,1.688,4.926Zm-.62-1.445h0a.487.487,0,0,0-.323.449c0,.29.31.409,1.068.409.593,0,.962-.157.962-.409s-.2-.344-.89-.39L1.279,3.5a1.115,1.115,0,0,1-.211-.02ZM1.7.607a.631.631,0,0,0-.712.672.629.629,0,0,0,.719.66.622.622,0,0,0,.706-.66A.625.625,0,0,0,1.7.607Z" transform="translate(41.257 2.219)" fill="#131413"/>
        <path id="Fill_26" data-name="Fill 26" d="M.992,4.813H.008v-3.5H.992v3.5ZM1,.706H0V0H1V.7Z" transform="translate(45.51 0.973)" fill="#131413"/>
        <path id="Fill_27" data-name="Fill 27" d="M1.688,3.64A1.628,1.628,0,0,1,0,1.82,1.671,1.671,0,0,1,1.669,0C2.131,0,3.2.184,3.2,1.893v.191H.811a.869.869,0,0,0,.936.91,1.271,1.271,0,0,0,.983-.409l.428.422A1.9,1.9,0,0,1,1.688,3.64ZM1.661.66a.826.826,0,0,0-.837.817H2.46C2.412.935,2.144.66,1.661.66Z" transform="translate(47.079 2.219)" fill="#131413"/>
        <path id="Fill_28" data-name="Fill 28" d="M0,.066H.811V.64H.824A1.371,1.371,0,0,1,2.084,0h.053L2.11.745C2.07.738,1.939.732,1.892.732a1.188,1.188,0,0,0-1.081.62V3.567H0Z" transform="translate(51.028 2.219)" fill="#131413"/>
        <path id="Fill_29" data-name="Fill 29" d="M0,2.512V0H.818V2.321c0,.389.165.567.521.567a1.419,1.419,0,0,0,.95-.455V0h.818V3.5H2.288V3.027a1.736,1.736,0,0,1-1.279.541A.943.943,0,0,1,0,2.512" transform="translate(53.735 2.285)" fill="#131413"/>
        <path id="Fill_30" data-name="Fill 30" d="M0,.066H.818V.541A1.736,1.736,0,0,1,2.1,0,.943.943,0,0,1,3.106,1.055V3.567H2.288V1.259c0-.389-.165-.567-.521-.567a1.419,1.419,0,0,0-.95.455v2.42H0Z" transform="translate(57.757 2.219)" fill="#131413"/>
        <path id="Fill_31" data-name="Fill 31" d="M1.688,4.926C.584,4.926,0,4.629,0,4.068A.78.78,0,0,1,.573,3.33.459.459,0,0,1,.3,2.9a.831.831,0,0,1,.474-.64A1.156,1.156,0,0,1,.224,1.253,1.3,1.3,0,0,1,1.695,0,1.57,1.57,0,0,1,2.769.369,1.811,1.811,0,0,1,3.64.026v.66H3.625a2.067,2.067,0,0,0-.6.091.892.892,0,0,1,.125.475C3.152,2.01,2.58,2.5,1.695,2.5a1.659,1.659,0,0,1-.488-.073c-.12.067-.178.141-.178.224,0,.137.09.184.4.211l.62.04c1.025.065,1.444.342,1.444.956C3.495,4.536,2.836,4.926,1.688,4.926Zm-.62-1.445h0a.486.486,0,0,0-.323.449c0,.29.31.409,1.068.409.593,0,.962-.157.962-.409s-.2-.344-.89-.39L1.279,3.5a1.115,1.115,0,0,1-.211-.02ZM1.7.607a.631.631,0,0,0-.712.672.629.629,0,0,0,.719.66.622.622,0,0,0,.7-.66A.625.625,0,0,0,1.7.607Z" transform="translate(61.385 2.219)" fill="#131413"/>
        <path id="Fill_32" data-name="Fill 32" d="M0,0H.837L3.145,3.482h.013V0h.765V4.879H3.172L.778,1.325H.765V4.879H0Z" transform="translate(0 8.819)" fill="#131413"/>
        <path id="Fill_33" data-name="Fill 33" d="M1.708,3.64A1.654,1.654,0,0,1,0,1.82,1.654,1.654,0,0,1,1.708,0,1.654,1.654,0,0,1,3.416,1.82,1.654,1.654,0,0,1,1.708,3.64Zm0-2.947c-.575,0-.891.4-.891,1.128s.316,1.141.891,1.141.89-.405.89-1.141C2.6,1.1,2.274.692,1.708.692Z" transform="translate(4.754 10.131)" fill="#131413"/>
        <path id="Fill_34" data-name="Fill 34" d="M0,.066H.811V.64H.824A1.371,1.371,0,0,1,2.084,0h.053L2.11.745C2.07.738,1.939.732,1.892.732a1.188,1.188,0,0,0-1.081.62V3.567H0Z" transform="translate(8.904 10.131)" fill="#131413"/>
        <path id="Fill_35" data-name="Fill 35" d="M1.385,4.932C.518,4.932,0,4.261,0,3.138,0,1.978.546,1.312,1.5,1.312a1.336,1.336,0,0,1,1,.442V0H3.31V4.022a2.188,2.188,0,0,0,.105.858H2.578A1.291,1.291,0,0,1,2.5,4.4,1.393,1.393,0,0,1,1.385,4.932Zm.29-2.947c-.589,0-.864.373-.864,1.174,0,.714.3,1.108.838,1.108A1.19,1.19,0,0,0,2.5,3.824V2.42A1.064,1.064,0,0,0,1.675,1.985Z" transform="translate(11.43 8.819)" fill="#131413"/>
        <path id="Fill_36" data-name="Fill 36" d="M0,.066H.811V.64H.824A1.371,1.371,0,0,1,2.084,0h.053L2.11.745C2.07.738,1.939.732,1.892.732a1.188,1.188,0,0,0-1.081.62V3.567H0Z" transform="translate(15.67 10.131)" fill="#131413"/>
        <path id="Fill_37" data-name="Fill 37" d="M0,0H.818V1.853A1.735,1.735,0,0,1,2.1,1.312.943.943,0,0,1,3.106,2.367V4.879H2.288V2.572c0-.389-.165-.567-.521-.567a1.419,1.419,0,0,0-.95.455v2.42H0Z" transform="translate(18.395 8.819)" fill="#131413"/>
        <path id="Fill_38" data-name="Fill 38" d="M1.688,3.64A1.628,1.628,0,0,1,0,1.82,1.671,1.671,0,0,1,1.669,0C2.131,0,3.2.184,3.2,1.893v.191H.811a.869.869,0,0,0,.936.91,1.271,1.271,0,0,0,.983-.409l.428.422A1.9,1.9,0,0,1,1.688,3.64ZM1.661.66a.826.826,0,0,0-.837.817H2.46C2.412.935,2.144.66,1.661.66Z" transform="translate(22.217 10.131)" fill="#131413"/>
        <path id="Fill_39" data-name="Fill 39" d="M.992,4.813H.008v-3.5H.992v3.5ZM1,.706H0V0H1V.7Z" transform="translate(26.167 8.885)" fill="#131413"/>
        <path id="Fill_40" data-name="Fill 40" d="M0,.066H.818V.541A1.736,1.736,0,0,1,2.1,0,.943.943,0,0,1,3.106,1.055V3.567H2.288V1.259c0-.389-.165-.567-.521-.567a1.419,1.419,0,0,0-.95.455v2.42H0Z" transform="translate(27.915 10.131)" fill="#131413"/>
        <path id="Fill_41" data-name="Fill 41" d="M0,.58H1.629V0H0Z" transform="translate(31.826 11.338)" fill="#131413"/>
        <path id="Fill_42" data-name="Fill 42" d="M0,0H.831l.62,2.525c.1.389.191.752.257,1.134h.013c.066-.376.152-.738.251-1.128L2.558,0H3.35l.607,2.545c.106.415.185.706.257,1.114h.013c.073-.422.145-.679.237-1.095L5.071,0h.771L4.556,4.879H3.838L2.961,1.141H2.947L2.024,4.879H1.3Z" transform="translate(33.75 8.819)" fill="#131413"/>
        <path id="Fill_43" data-name="Fill 43" d="M1.688,3.64A1.628,1.628,0,0,1,0,1.82,1.671,1.671,0,0,1,1.669,0C2.131,0,3.2.184,3.2,1.893v.191H.811a.869.869,0,0,0,.936.91,1.271,1.271,0,0,0,.983-.409l.428.422A1.9,1.9,0,0,1,1.688,3.64ZM1.661.66a.826.826,0,0,0-.837.817H2.46C2.412.935,2.144.66,1.661.66Z" transform="translate(39.779 10.131)" fill="#131413"/>
        <path id="Fill_44" data-name="Fill 44" d="M0,3.086l.442-.495a1.726,1.726,0,0,0,1.1.415c.435,0,.7-.112.7-.4s-.356-.369-.778-.468C.864,2,.145,1.84.145,1.029.145.415.673,0,1.444,0A2.055,2.055,0,0,1,2.882.495l-.389.528A1.759,1.759,0,0,0,1.5.64C1.055.64.91.8.91,1c0,.284.35.369.765.462.6.132,1.332.284,1.332,1.1,0,.738-.666,1.081-1.464,1.081A2.217,2.217,0,0,1,0,3.086" transform="translate(43.491 10.131)" fill="#131413"/>
        <path id="Fill_45" data-name="Fill 45" d="M.607,3.8V1.866H0V1.22H.607V0h.811V1.22h.9v.646h-.9V3.6c0,.376.112.527.514.527a1.321,1.321,0,0,0,.349-.046v.64a4,4,0,0,1-.593.046C.8,4.767.607,4.438.607,3.8" transform="translate(46.93 8.977)" fill="#131413"/>
        <path id="Fill_46" data-name="Fill 46" d="M.607,2.044H0V1.4H.607V1.042C.607.455.851,0,1.741,0c.152,0,.422.026.481.033V.659A1.515,1.515,0,0,0,1.945.633c-.29,0-.528.079-.528.455V1.4h.765v.646H1.418V4.9H.607Z" transform="translate(49.741 8.799)" fill="#131413"/>
        <path id="Fill_47" data-name="Fill 47" d="M.989,3.62A.886.886,0,0,1,0,2.723c0-.8.746-1.278,2.281-1.451V1.167c0-.347-.177-.5-.573-.5a1.878,1.878,0,0,0-1.181.475L.132.633A2.521,2.521,0,0,1,1.82,0c.871,0,1.26.391,1.26,1.266V2.71a2.4,2.4,0,0,0,.1.858H2.361a1.282,1.282,0,0,1-.079-.449A1.674,1.674,0,0,1,.989,3.62Zm1.292-1.8C1.283,1.956.8,2.2.8,2.571c0,.268.178.422.488.422a1.407,1.407,0,0,0,1-.4Z" transform="translate(52.342 10.131)" fill="#131413"/>
        <path id="Fill_48" data-name="Fill 48" d="M0,4.879H.818V0H0Z" transform="translate(56.332 8.819)" fill="#131413"/>
        <path id="Fill_49" data-name="Fill 49" d="M1.688,3.64A1.628,1.628,0,0,1,0,1.82,1.671,1.671,0,0,1,1.669,0C2.131,0,3.2.184,3.2,1.893v.191H.811a.869.869,0,0,0,.936.91,1.271,1.271,0,0,0,.983-.409l.428.422A1.9,1.9,0,0,1,1.688,3.64ZM1.661.66a.826.826,0,0,0-.837.817H2.46C2.412.935,2.144.66,1.661.66Z" transform="translate(57.899 10.131)" fill="#131413"/>
        <path id="Fill_50" data-name="Fill 50" d="M0,.066H.818V.541A1.736,1.736,0,0,1,2.1,0,.943.943,0,0,1,3.106,1.055V3.567H2.288V1.259c0-.389-.165-.567-.521-.567a1.42,1.42,0,0,0-.95.455v2.42H0Z" transform="translate(61.848 10.131)" fill="#131413"/>
      </g>
    </g>
  </g>
</svg>
