<?xml version="1.0" encoding="utf-8"?>
<!-- Generator: Adobe Illustrator 23.0.6, SVG Export Plug-In . SVG Version: 6.00 Build 0)  -->
<svg version="1.1" id="Layer_1" xmlns="http://www.w3.org/2000/svg" xmlns:xlink="http://www.w3.org/1999/xlink" x="0px" y="0px"
	 viewBox="0 0 95 45" style="enable-background:new 0 0 95 45;" xml:space="preserve">
<style type="text/css">
	.st0{fill:#66C5EC;}
	.st1{fill:#F29400;}
</style>
<g id="Group" transform="translate(37.308)">
	<path id="Path" class="st0" d="M25.7,12.7H31c4.9,0,3.1,4.8,3.1,4.8L30.5,27c-1,2.7-3.5,4.4-6.3,4.4H13.1c-0.5,0-0.9-0.4-0.9-0.9
		c0,0,0,0,0,0l1.5-13.9c0.2-1.2,0.5-2.4,1.1-3.5c0.5-1,2.8-3.2,3.6-4.5c1.2-2.5,2.3-5.1,3.2-7.7c0.1-0.3,0.4-0.5,0.8-0.5h0.9
		c1.2,0,2.3,0.6,3,1.5c0.7,1,0.9,2.2,0.6,3.4l-1.9,6.2c-0.1,0.3,0,0.5,0.1,0.8C25.2,12.6,25.4,12.7,25.7,12.7z"/>
	<path id="Path-2" class="st0" d="M48.5,12.7h5.3c4.9,0,3.1,4.8,3.1,4.8L53.3,27c-1,2.7-3.5,4.4-6.3,4.4H35.9
		c-0.2,0-0.4-0.1-0.6-0.3c-0.2-0.2-0.2-0.4-0.2-0.6l1.5-13.9c0.2-1.2,0.5-2.4,1.1-3.5c0.5-1,2.8-3.2,3.6-4.5
		c1.2-2.5,2.3-5.1,3.2-7.7c0.1-0.3,0.4-0.5,0.7-0.5H46c1.2,0,2.3,0.6,3,1.5c0.7,1,0.9,2.2,0.6,3.4l-1.8,6.2c-0.1,0.3,0,0.5,0.1,0.8
		C48,12.6,48.2,12.7,48.5,12.7z"/>
</g>
<g id="Group-2" transform="translate(0 10)">
	<path id="Path-3" class="st1" d="M45.4,3.8H31.5c-2,0.1-3.7,1.4-4.3,3.3l-4,12.2c-0.6,1.1-0.1,2.5,1,3c0.3,0.2,0.7,0.2,1.1,0.2h8.9
		c-1.2,3.8-3.8,7.1-7.2,9.2l0,0c-0.4,0.2-0.6,0.6-0.6,1.1c0,0.8,0.9,1.4,1.9,1.4c0.1,0,0.2,0,0.3,0h0.1c9.5-1.4,14.9-15.2,15.4-16.7
		l0,0l3.5-10.5c0.6-1.1,0.1-2.5-1-3.1C46.2,3.8,45.8,3.8,45.4,3.8z"/>
	<path id="Path-4" class="st1" d="M24.7,7c0.6-1.1,0.1-2.5-1-3c-0.3-0.2-0.7-0.2-1.1-0.2H8.6C6.7,3.9,5,5.2,4.3,7l-4,12.2
		c-0.6,1.1-0.1,2.5,1,3c0.3,0.2,0.7,0.2,1.1,0.2h8.9c-1.2,3.8-3.8,7.1-7.2,9.2l0,0c-0.4,0.2-0.6,0.6-0.6,1.1c0,0.8,0.9,1.4,1.9,1.4
		c0.1,0,0.2,0,0.3,0h0.1c9.5-1.4,14.9-15.2,15.4-16.7l0,0L24.7,7z"/>
</g>
</svg>
