<svg xmlns="http://www.w3.org/2000/svg" xmlns:xlink="http://www.w3.org/1999/xlink" width="107.457" height="29.904" viewBox="0 0 107.457 29.904"><defs><clipPath id="a"><path d="M0,0H28.309V29.9H0Z" transform="translate(0.026 0.03)" fill="none"/></clipPath><clipPath id="b"><path d="M0,0H3.923V4.879H0Z" transform="translate(0 0.05)" fill="none"/></clipPath><clipPath id="c"><path d="M0,29.9H107.456V0H0Z" transform="translate(0 0.03)" fill="none"/></clipPath></defs><g transform="translate(0 -0.066)"><g transform="translate(79.121 0.036)"><path d="M0,0H28.309V29.9H0Z" transform="translate(0.026 0.03)" fill="none"/><g clip-path="url(#a)"><path d="M14.154,29.9A14.024,14.024,0,0,1,4.146,25.736,14.172,14.172,0,0,1,0,15.676V0h28.31V15.676a14.171,14.171,0,0,1-4.147,10.06A14.026,14.026,0,0,1,14.154,29.9ZM.527.527V15.676a13.627,13.627,0,1,0,27.254,0V.527Z" transform="translate(0.026 0.03)" fill="#fefefe"/></g><path d="M12.925,27.661h0a1.4,1.4,0,0,1-.528-.529.828.828,0,0,0,.53-.283.843.843,0,0,0,.527.28,1.4,1.4,0,0,1-.528.533Zm2.469-1.939h0a.82.82,0,0,0-.106-.592.846.846,0,0,0,.43-.415,1.41,1.41,0,0,1,.343.669,1.408,1.408,0,0,1-.665.338Zm-4.935,0h0a1.408,1.408,0,0,1-.668-.338,1.4,1.4,0,0,1,.341-.666.819.819,0,0,0,.43.416.818.818,0,0,0-.1.587ZM6.286,25.6h0A13.039,13.039,0,0,1,1.67,20.84,13.8,13.8,0,0,0,3.545,18.56a12.221,12.221,0,0,0,1.067-2.508,9.871,9.871,0,0,1,1.412-3A7.4,7.4,0,0,1,8.2,11.373,6.993,6.993,0,0,0,10.339,9.7a10.987,10.987,0,0,0,1.316-2.625,14.665,14.665,0,0,1,.917-2.022v9.4a13.046,13.046,0,0,1-1.731,6.5A13.048,13.048,0,0,1,6.287,25.6Zm6.637-.362a.872.872,0,1,1,.872-.872A.873.873,0,0,1,12.923,25.237Zm-2.05-2.8h0a1.406,1.406,0,0,1,.115-.742c.063-.006.113-.008.154-.008a1.426,1.426,0,0,1,.584.127.823.823,0,0,0-.262.542.709.709,0,0,0-.182-.022.882.882,0,0,0-.407.1Zm4.1,0h0a.886.886,0,0,0-.406-.1.765.765,0,0,0-.188.023.845.845,0,0,0-.262-.537,1.4,1.4,0,0,1,.588-.128,1.544,1.544,0,0,1,.155.008,1.4,1.4,0,0,1,.115.737ZM.125,16.26v0h0A13.162,13.162,0,0,1,0,14.446V0H10.691c-.324.357-.747.832-1.139,1.357A9.008,9.008,0,0,0,8.275,4.38a8.743,8.743,0,0,1-1.3,3.045,7.5,7.5,0,0,1-2.24,1.756l-.007,0a7.049,7.049,0,0,0-2.071,1.6A9.248,9.248,0,0,0,1.332,13.6l0,.007a9.869,9.869,0,0,1-1.2,2.649Z" transform="translate(1.257 1.261)" fill="#fefefe"/><path d="M3.372,26.8a.571.571,0,0,1-.626-.5.225.225,0,0,0-.282,0,.572.572,0,0,1-.626.5,1.4,1.4,0,0,1-.795-.283,1.2,1.2,0,0,1-.554-.963A.543.543,0,0,1,.806,25.1.224.224,0,0,0,.72,24.83a.677.677,0,0,1-.111.009.531.531,0,0,1-.445-.229,1.234,1.234,0,0,1-.086-1.066c.158-.487.527-.841.876-.841a.554.554,0,0,1,.4.178h.012a.227.227,0,0,0,.216-.166.541.541,0,0,1,.01-.553,1.2,1.2,0,0,1,1.015-.455,1.2,1.2,0,0,1,1.014.454.543.543,0,0,1,.01.554.228.228,0,0,0,.216.166h.012a.551.551,0,0,1,.4-.178c.349,0,.717.354.877.841a1.239,1.239,0,0,1-.087,1.066.531.531,0,0,1-.445.229.675.675,0,0,1-.111-.009A.223.223,0,0,0,4.4,25.1a.544.544,0,0,1,.318.454,1.2,1.2,0,0,1-.554.963A1.4,1.4,0,0,1,3.372,26.8ZM2.6,23a1.364,1.364,0,1,0,1.364,1.364A1.365,1.365,0,0,0,2.6,23Zm6.639,2.6h0A13,13,0,0,1,2.957,14.445V0H15.529V14.445A13.008,13.008,0,0,1,9.244,25.6Zm2.167-5.007h0a1.315,1.315,0,0,0-.471.849,1.492,1.492,0,0,0,.626.118,2.891,2.891,0,0,0,.859-.139v-.5a.307.307,0,0,1,.311-.328,5.861,5.861,0,0,1,.383-1.859c.173-.482.351-.9.442-1.1a4.123,4.123,0,0,1-.646-2.284,2.97,2.97,0,0,0,.838-2.147c-.09-.679-.593-1.32-1.682-2.144a3.58,3.58,0,0,1-1.19-3.046l.005-.069A2.839,2.839,0,0,1,11.939,7.7a2.622,2.622,0,0,1-.6-.715,7.476,7.476,0,0,0,1.626-.509A2.534,2.534,0,0,1,12,5.338a2.479,2.479,0,0,0,.806.13,3.12,3.12,0,0,0,.821-.117,2.4,2.4,0,0,1-.658-.76A3.894,3.894,0,0,0,12.3,3.75a3.591,3.591,0,0,0,.946-.314,2.754,2.754,0,0,0-1.758-1.083A2.587,2.587,0,0,0,12.4,1.7c-.285.027-.554.041-.8.041a9.333,9.333,0,0,1-1.428-.121l-.013,0c-.143-.021-.266-.04-.38-.051a1.127,1.127,0,0,1,.035.449.281.281,0,0,1-.279.274.208.208,0,0,1-.175-.078l.007-.018a.752.752,0,0,0,0-.64,1.278,1.278,0,0,0-.61-.606,3.145,3.145,0,0,1-.048.445,2.9,2.9,0,0,0-.05.6L8.643,2a5.481,5.481,0,0,0-.808.484L6.362,3.653a.544.544,0,0,0-.23.38.187.187,0,0,1-.005.373.284.284,0,0,0,.3.3l.2-.144a.134.134,0,0,1,0-.019c0-.1.13-.188.289-.188s.289.084.289.188-.13.188-.289.188l-.053,0-.211.153,0,0A1.463,1.463,0,0,0,7.189,5,.479.479,0,0,0,7.7,4.646c.064-.212.309-.256.658-.256.166,0,.352.009.4.012l.05,0c.143.006.314.013.495.013.326,0,.547-.093.716-.571a.465.465,0,0,1,.08-.008.206.206,0,0,1,.185.093.292.292,0,0,1,.01.26A1.012,1.012,0,0,1,9.264,4.8,3.191,3.191,0,0,1,8.048,6.348l0,0a3.208,3.208,0,0,0-1.48,2.374L4.859,9.3l-.467.567A4.186,4.186,0,0,1,5,11.349l0,.009,0,.005,0,.009a2.054,2.054,0,0,0,.2.579.483.483,0,0,1,.1-.011.424.424,0,0,1,.424.424c0,.018,0,.036,0,.055v.019l0,.018,0,.041a1.56,1.56,0,0,0,.851.477,1.99,1.99,0,0,0-.019-1.417h-.5v-.313a.981.981,0,0,1-.64-.665.734.734,0,0,1,.238-.665l2.1.113h.031A.693.693,0,0,0,8.4,9.558a.2.2,0,0,1,.071-.013.187.187,0,0,1,.167.107.3.3,0,0,1-.023.308,1.02,1.02,0,0,1-.829.456l-.054,0-.845-.046A3.358,3.358,0,0,0,8.57,11.908a3.348,3.348,0,0,1,1.7,1.58c0,.8.084,2.2.645,2.661,1.824,1.491,2.094,1.8.946,3.845a.439.439,0,0,1,.04.179.424.424,0,0,1-.424.424.406.406,0,0,1-.066-.005ZM5.986,17.676a1.375,1.375,0,0,0-.477.849,1.468,1.468,0,0,0,.615.122,2.58,2.58,0,0,0,.8-.139v-.5h.348a3.809,3.809,0,0,1,1.639-.2c.387,0,.713.012.834.017h.006c0-1.518.535-1.968.558-1.986a5.28,5.28,0,0,1-.427-2.262,2.269,2.269,0,0,0-.533-.734A1.374,1.374,0,0,0,8.24,14.329a3.744,3.744,0,0,0,.4,1.54l0,.005a3.252,3.252,0,0,1,.354,1.312H6.537a.566.566,0,0,1,.006.075.424.424,0,0,1-.424.423c-.021,0-.042,0-.063,0H6.045Zm6.9-9.97a.768.768,0,0,0-.447.133.7.7,0,0,1,.443.619,1.721,1.721,0,0,1-.206.64,2.615,2.615,0,0,0-.307,1.085c0,.769.585,1.1,1.1,1.386.421.236.784.44.784.831a.343.343,0,0,1-.235.347.887.887,0,0,0,.268.044.683.683,0,0,0,.473-.175.8.8,0,0,0,.22-.609,1.575,1.575,0,0,0-.358-.888l0-.005a1.605,1.605,0,0,1-.374-.93,1.372,1.372,0,0,1,.337-.775,1.785,1.785,0,0,0,.425-1.062A1.662,1.662,0,0,0,13.742,6.78a2.138,2.138,0,0,1-.1,1.372A.8.8,0,0,0,12.89,7.706Zm-8.419-2.2a3.887,3.887,0,0,1-.534,1.332l0,.006a3.936,3.936,0,0,0-.355.731.406.406,0,0,1,.082.064.424.424,0,0,1,0,.6.433.433,0,0,1-.1.076v0a1.413,1.413,0,0,0,.265.916A1.982,1.982,0,0,0,4.8,8.23l-.343-.363.222-.224a.965.965,0,0,1,.005-.913.739.739,0,0,1,.643-.308l.923,1.716a2.821,2.821,0,0,1,.683-1.274L5.2,5.505H4.471Zm3.614-2.27a.3.3,0,0,1-.27-.147c.027-.17.1-.257.223-.257a.919.919,0,0,1,.476.254A.891.891,0,0,1,8.086,3.235Z" transform="translate(11.576 1.261)" fill="#fefefe"/></g><g transform="translate(0 0.036)"><g transform="translate(0 0.857)"><path d="M0,0H3.923V4.879H0Z" transform="translate(0 0.05)" fill="none"/><g clip-path="url(#b)"><path d="M1.391,4.88H0V0H1.391A2.215,2.215,0,0,1,3.923,2.42,2.232,2.232,0,0,1,1.391,4.88ZM.824.765V4.141h.64C2.61,4.141,3.1,3.626,3.1,2.42,3.1,1.275,2.59.765,1.451.765Z" transform="translate(0 0.05)" fill="#fefefe"/></g></g><path d="M0,29.9H107.456V0H0Z" transform="translate(0 0.03)" fill="none"/><g clip-path="url(#c)"><path d="M.992,4.813H.008v-3.5H.992v3.5ZM1,.706H0V0H1V.7Z" transform="translate(4.752 0.973)" fill="#fefefe"/><path d="M1.688,3.64A1.628,1.628,0,0,1,0,1.82,1.671,1.671,0,0,1,1.669,0C2.131,0,3.2.184,3.2,1.893v.191H.811a.869.869,0,0,0,.936.91,1.271,1.271,0,0,0,.983-.409l.428.422A1.9,1.9,0,0,1,1.688,3.64ZM1.661.66a.826.826,0,0,0-.837.817H2.46C2.412.935,2.144.66,1.661.66Z" transform="translate(6.321 2.219)" fill="#fefefe"/><path d="M0,0H.824V4.128H3.073v.752H0Z" transform="translate(12.321 0.907)" fill="#fefefe"/><path d="M.989,3.62A.886.886,0,0,1,0,2.723c0-.8.746-1.278,2.281-1.451V1.167c0-.347-.177-.5-.573-.5a1.878,1.878,0,0,0-1.181.475L.132.633A2.521,2.521,0,0,1,1.82,0c.871,0,1.26.391,1.26,1.266V2.71a2.4,2.4,0,0,0,.1.858H2.361a1.282,1.282,0,0,1-.079-.449A1.674,1.674,0,0,1,.989,3.62Zm1.292-1.8C1.283,1.956.8,2.2.8,2.571c0,.268.178.422.488.422a1.407,1.407,0,0,0,1-.4Z" transform="translate(15.935 2.219)" fill="#fefefe"/><path d="M0,.066H.818V.541A1.736,1.736,0,0,1,2.1,0,.943.943,0,0,1,3.106,1.055V3.567H2.288V1.259c0-.389-.165-.567-.521-.567a1.419,1.419,0,0,0-.95.455v2.42H0Z" transform="translate(19.906 2.219)" fill="#fefefe"/><path d="M1.385,4.932C.518,4.932,0,4.261,0,3.138,0,1.978.546,1.312,1.5,1.312a1.336,1.336,0,0,1,1,.442V0H3.31V4.022a2.188,2.188,0,0,0,.105.858H2.578A1.291,1.291,0,0,1,2.5,4.4,1.393,1.393,0,0,1,1.385,4.932Zm.29-2.947c-.589,0-.864.373-.864,1.174,0,.714.3,1.108.838,1.108A1.19,1.19,0,0,0,2.5,3.824V2.42A1.064,1.064,0,0,0,1.675,1.985Z" transform="translate(23.742 0.907)" fill="#fefefe"/><path d="M1.688,3.64A1.628,1.628,0,0,1,0,1.82,1.671,1.671,0,0,1,1.669,0C2.131,0,3.2.184,3.2,1.893v.191H.811a.869.869,0,0,0,.936.91,1.271,1.271,0,0,0,.983-.409l.428.422A1.9,1.9,0,0,1,1.688,3.64ZM1.661.66a.826.826,0,0,0-.837.817H2.46C2.412.935,2.144.66,1.661.66Z" transform="translate(27.777 2.219)" fill="#fefefe"/><path d="M0,3.086l.442-.495a1.726,1.726,0,0,0,1.1.415c.435,0,.7-.112.7-.4s-.356-.369-.778-.468C.864,2,.145,1.84.145,1.029.145.415.673,0,1.444,0A2.055,2.055,0,0,1,2.882.495l-.389.528A1.758,1.758,0,0,0,1.5.64C1.055.64.91.8.91,1c0,.284.349.369.765.462.6.132,1.332.284,1.332,1.1,0,.738-.666,1.081-1.464,1.081A2.217,2.217,0,0,1,0,3.086" transform="translate(31.489 2.219)" fill="#fefefe"/><path d="M0,.066H.811V.64H.824A1.371,1.371,0,0,1,2.084,0h.053L2.11.745C2.07.738,1.939.732,1.892.732a1.188,1.188,0,0,0-1.081.62V3.567H0Z" transform="translate(35.202 2.219)" fill="#fefefe"/><path d="M1.688,3.64A1.628,1.628,0,0,1,0,1.82,1.671,1.671,0,0,1,1.669,0C2.131,0,3.2.184,3.2,1.893v.191H.811a.87.87,0,0,0,.937.91,1.27,1.27,0,0,0,.982-.409l.428.422A1.9,1.9,0,0,1,1.688,3.64ZM1.661.66a.826.826,0,0,0-.837.817H2.46C2.413.935,2.145.66,1.661.66Z" transform="translate(37.697 2.219)" fill="#fefefe"/><path d="M1.688,4.926C.584,4.926,0,4.629,0,4.068A.78.78,0,0,1,.573,3.33.459.459,0,0,1,.3,2.9a.832.832,0,0,1,.475-.64A1.155,1.155,0,0,1,.224,1.253,1.3,1.3,0,0,1,1.695,0,1.57,1.57,0,0,1,2.769.369,1.811,1.811,0,0,1,3.64.026v.66H3.625a2.067,2.067,0,0,0-.6.091.892.892,0,0,1,.125.475C3.152,2.01,2.58,2.5,1.695,2.5a1.659,1.659,0,0,1-.488-.073c-.12.067-.178.141-.178.224,0,.137.09.184.4.211l.62.04c1.025.065,1.444.342,1.444.956C3.495,4.536,2.836,4.926,1.688,4.926Zm-.62-1.445h0a.486.486,0,0,0-.323.449c0,.29.31.409,1.068.409.593,0,.962-.157.962-.409s-.2-.345-.89-.39L1.279,3.5a1.115,1.115,0,0,1-.211-.02ZM1.7.607a.631.631,0,0,0-.712.672.629.629,0,0,0,.719.66.622.622,0,0,0,.706-.66A.625.625,0,0,0,1.7.607Z" transform="translate(41.257 2.219)" fill="#fefefe"/><path d="M.992,4.813H.008v-3.5H.992v3.5ZM1,.706H0V0H1V.7Z" transform="translate(45.51 0.973)" fill="#fefefe"/><path d="M1.688,3.64A1.628,1.628,0,0,1,0,1.82,1.671,1.671,0,0,1,1.669,0C2.131,0,3.2.184,3.2,1.893v.191H.811a.869.869,0,0,0,.936.91,1.271,1.271,0,0,0,.983-.409l.428.422A1.9,1.9,0,0,1,1.688,3.64ZM1.661.66a.826.826,0,0,0-.837.817H2.46C2.412.935,2.144.66,1.661.66Z" transform="translate(47.079 2.219)" fill="#fefefe"/><path d="M0,.066H.811V.64H.824A1.371,1.371,0,0,1,2.084,0h.053L2.11.745C2.07.738,1.939.732,1.892.732a1.188,1.188,0,0,0-1.081.62V3.567H0Z" transform="translate(51.028 2.219)" fill="#fefefe"/><path d="M0,2.512V0H.818V2.321c0,.389.165.567.521.567a1.419,1.419,0,0,0,.95-.455V0h.818V3.5H2.288V3.027a1.736,1.736,0,0,1-1.279.541A.943.943,0,0,1,0,2.512" transform="translate(53.735 2.285)" fill="#fefefe"/><path d="M0,.066H.818V.541A1.736,1.736,0,0,1,2.1,0,.943.943,0,0,1,3.106,1.055V3.567H2.288V1.259c0-.389-.165-.567-.521-.567a1.419,1.419,0,0,0-.95.455v2.42H0Z" transform="translate(57.757 2.219)" fill="#fefefe"/><path d="M1.688,4.926C.584,4.926,0,4.629,0,4.068A.78.78,0,0,1,.573,3.33.459.459,0,0,1,.3,2.9a.831.831,0,0,1,.474-.64A1.156,1.156,0,0,1,.224,1.253,1.3,1.3,0,0,1,1.695,0,1.57,1.57,0,0,1,2.769.369,1.811,1.811,0,0,1,3.64.026v.66H3.625a2.067,2.067,0,0,0-.6.091.892.892,0,0,1,.125.475C3.152,2.01,2.58,2.5,1.695,2.5a1.659,1.659,0,0,1-.488-.073c-.12.067-.178.141-.178.224,0,.137.09.184.4.211l.62.04c1.025.065,1.444.342,1.444.956C3.495,4.536,2.836,4.926,1.688,4.926Zm-.62-1.445h0a.486.486,0,0,0-.323.449c0,.29.31.409,1.068.409.593,0,.962-.157.962-.409s-.2-.345-.89-.39L1.279,3.5a1.115,1.115,0,0,1-.211-.02ZM1.7.607a.631.631,0,0,0-.712.672.629.629,0,0,0,.719.66.622.622,0,0,0,.7-.66A.625.625,0,0,0,1.7.607Z" transform="translate(61.385 2.219)" fill="#fefefe"/><path d="M0,0H.837L3.145,3.482h.013V0h.765V4.879H3.172L.778,1.325H.765V4.879H0Z" transform="translate(0 8.819)" fill="#fefefe"/><path d="M1.708,3.64A1.654,1.654,0,0,1,0,1.82,1.654,1.654,0,0,1,1.708,0,1.654,1.654,0,0,1,3.416,1.82,1.654,1.654,0,0,1,1.708,3.64Zm0-2.947c-.575,0-.891.4-.891,1.128s.316,1.141.891,1.141.89-.405.89-1.141C2.6,1.1,2.274.692,1.708.692Z" transform="translate(4.754 10.131)" fill="#fefefe"/><path d="M0,.066H.811V.64H.824A1.371,1.371,0,0,1,2.084,0h.053L2.11.745C2.07.738,1.939.732,1.892.732a1.188,1.188,0,0,0-1.081.62V3.567H0Z" transform="translate(8.904 10.131)" fill="#fefefe"/><path d="M1.385,4.932C.518,4.932,0,4.261,0,3.138,0,1.978.546,1.312,1.5,1.312a1.336,1.336,0,0,1,1,.442V0H3.31V4.022a2.188,2.188,0,0,0,.105.858H2.578A1.291,1.291,0,0,1,2.5,4.4,1.393,1.393,0,0,1,1.385,4.932Zm.29-2.947c-.589,0-.864.373-.864,1.174,0,.714.3,1.108.838,1.108A1.19,1.19,0,0,0,2.5,3.824V2.42A1.064,1.064,0,0,0,1.675,1.985Z" transform="translate(11.43 8.819)" fill="#fefefe"/><path d="M0,.066H.811V.64H.824A1.371,1.371,0,0,1,2.084,0h.053L2.11.745C2.07.738,1.939.732,1.892.732a1.188,1.188,0,0,0-1.081.62V3.567H0Z" transform="translate(15.67 10.131)" fill="#fefefe"/><path d="M0,0H.818V1.853A1.735,1.735,0,0,1,2.1,1.312.943.943,0,0,1,3.106,2.367V4.879H2.288V2.572c0-.389-.165-.567-.521-.567a1.419,1.419,0,0,0-.95.455v2.42H0Z" transform="translate(18.395 8.819)" fill="#fefefe"/><path d="M1.688,3.64A1.628,1.628,0,0,1,0,1.82,1.671,1.671,0,0,1,1.669,0C2.131,0,3.2.184,3.2,1.893v.191H.811a.869.869,0,0,0,.936.91,1.271,1.271,0,0,0,.983-.409l.428.422A1.9,1.9,0,0,1,1.688,3.64ZM1.661.66a.826.826,0,0,0-.837.817H2.46C2.412.935,2.144.66,1.661.66Z" transform="translate(22.217 10.131)" fill="#fefefe"/><path d="M.992,4.813H.008v-3.5H.992v3.5ZM1,.706H0V0H1V.7Z" transform="translate(26.167 8.885)" fill="#fefefe"/><path d="M0,.066H.818V.541A1.736,1.736,0,0,1,2.1,0,.943.943,0,0,1,3.106,1.055V3.567H2.288V1.259c0-.389-.165-.567-.521-.567a1.419,1.419,0,0,0-.95.455v2.42H0Z" transform="translate(27.915 10.131)" fill="#fefefe"/><path d="M0,.58H1.629V0H0Z" transform="translate(31.826 11.338)" fill="#fefefe"/><path d="M0,0H.831l.62,2.525c.1.389.191.752.257,1.134h.013c.066-.376.152-.738.251-1.128L2.558,0H3.35l.607,2.545c.106.415.185.706.257,1.114h.013c.073-.422.145-.679.237-1.095L5.071,0h.771L4.556,4.879H3.838L2.961,1.141H2.947L2.024,4.879H1.3Z" transform="translate(33.75 8.819)" fill="#fefefe"/><path d="M1.688,3.64A1.628,1.628,0,0,1,0,1.82,1.671,1.671,0,0,1,1.669,0C2.131,0,3.2.184,3.2,1.893v.191H.811a.869.869,0,0,0,.936.91,1.271,1.271,0,0,0,.983-.409l.428.422A1.9,1.9,0,0,1,1.688,3.64ZM1.661.66a.826.826,0,0,0-.837.817H2.46C2.412.935,2.144.66,1.661.66Z" transform="translate(39.779 10.131)" fill="#fefefe"/><path d="M0,3.086l.442-.495a1.726,1.726,0,0,0,1.1.415c.435,0,.7-.112.7-.4s-.356-.369-.778-.468C.864,2,.145,1.84.145,1.029.145.415.673,0,1.444,0A2.055,2.055,0,0,1,2.882.495l-.389.528A1.759,1.759,0,0,0,1.5.64C1.055.64.91.8.91,1c0,.284.35.369.765.462.6.132,1.332.284,1.332,1.1,0,.738-.666,1.081-1.464,1.081A2.217,2.217,0,0,1,0,3.086" transform="translate(43.491 10.131)" fill="#fefefe"/><path d="M.607,3.8V1.866H0V1.22H.607V0h.811V1.22h.9v.646h-.9V3.6c0,.376.112.527.514.527a1.321,1.321,0,0,0,.349-.046v.64a4,4,0,0,1-.593.046C.8,4.767.607,4.438.607,3.8" transform="translate(46.93 8.977)" fill="#fefefe"/><path d="M.607,2.044H0V1.4H.607V1.042C.607.455.851,0,1.741,0c.152,0,.422.026.481.033V.659A1.515,1.515,0,0,0,1.945.633c-.29,0-.528.079-.528.455V1.4h.765v.646H1.418V4.9H.607Z" transform="translate(49.741 8.799)" fill="#fefefe"/><path d="M.989,3.62A.886.886,0,0,1,0,2.723c0-.8.746-1.278,2.281-1.451V1.167c0-.347-.177-.5-.573-.5a1.878,1.878,0,0,0-1.181.475L.132.633A2.521,2.521,0,0,1,1.82,0c.871,0,1.26.391,1.26,1.266V2.71a2.4,2.4,0,0,0,.1.858H2.361a1.282,1.282,0,0,1-.079-.449A1.674,1.674,0,0,1,.989,3.62Zm1.292-1.8C1.283,1.956.8,2.2.8,2.571c0,.268.178.422.488.422a1.407,1.407,0,0,0,1-.4Z" transform="translate(52.342 10.131)" fill="#fefefe"/><path d="M0,4.879H.818V0H0Z" transform="translate(56.332 8.819)" fill="#fefefe"/><path d="M1.688,3.64A1.628,1.628,0,0,1,0,1.82,1.671,1.671,0,0,1,1.669,0C2.131,0,3.2.184,3.2,1.893v.191H.811a.869.869,0,0,0,.936.91,1.271,1.271,0,0,0,.983-.409l.428.422A1.9,1.9,0,0,1,1.688,3.64ZM1.661.66a.826.826,0,0,0-.837.817H2.46C2.412.935,2.144.66,1.661.66Z" transform="translate(57.899 10.131)" fill="#fefefe"/><path d="M0,.066H.818V.541A1.736,1.736,0,0,1,2.1,0,.943.943,0,0,1,3.106,1.055V3.567H2.288V1.259c0-.389-.165-.567-.521-.567a1.42,1.42,0,0,0-.95.455v2.42H0Z" transform="translate(61.848 10.131)" fill="#fefefe"/></g></g></g></svg>