<?xml version="1.0" encoding="utf-8"?>
<!-- Generator: Adobe Illustrator 23.0.3, SVG Export Plug-In . SVG Version: 6.00 Build 0)  -->
<svg version="1.1" id="Layer_1" xmlns="http://www.w3.org/2000/svg" xmlns:xlink="http://www.w3.org/1999/xlink" x="0px" y="0px"
	 viewBox="0 0 113 35" style="enable-background:new 0 0 113 35;" xml:space="preserve">
<style type="text/css">
	.st0{fill:#FEFEFE;}
	.st1{fill:none;}
	.st2{clip-path:url(#SVGID_2_);}
	.st3{fill:#131413;}
	.st4{clip-path:url(#SVGID_4_);}
	.st5{clip-path:url(#SVGID_6_);}
</style>
<g id="Group_52" transform="translate(0 -0.066)">
	<g id="Group_10" transform="translate(79.121 0.036)">
		<path id="Fill_1" class="st0" d="M17.18,32.79C9.42,32.77,3.15,26.47,3.17,18.71V3.17h28.03v15.54
			C31.21,26.47,24.94,32.77,17.18,32.79"/>
		<g id="Group_5">
			<path id="Clip_4-2" class="st1" d="M3.03,3.03h28.31v29.9H3.03V3.03z"/>
			<g>
				<defs>
					<rect id="SVGID_1_" x="3.03" y="3.03" width="28.31" height="29.9"/>
				</defs>
				<clipPath id="SVGID_2_">
					<use xlink:href="#SVGID_1_"  style="overflow:visible;"/>
				</clipPath>
				<g id="Group_5-2" class="st2">
					<path id="Fill_3" class="st3" d="M17.18,32.93c-3.76,0.01-7.36-1.49-10.01-4.16c-2.67-2.67-4.16-6.29-4.15-10.06V3.03h28.31
						v15.68c0.01,3.77-1.48,7.39-4.15,10.06C24.55,31.44,20.94,32.94,17.18,32.93z M3.55,3.56v15.15c0,7.53,6.1,13.63,13.63,13.63
						s13.63-6.1,13.63-13.63V3.56H3.55z"/>
				</g>
			</g>
		</g>
		<path id="Fill_6" class="st3" d="M17.18,31.92L17.18,31.92c-0.22-0.13-0.4-0.31-0.53-0.53c0.21-0.02,0.39-0.13,0.53-0.28
			c0.14,0.15,0.32,0.25,0.53,0.28C17.59,31.61,17.4,31.8,17.18,31.92L17.18,31.92z M19.65,29.98L19.65,29.98
			c0.04-0.2,0-0.42-0.11-0.59c0.19-0.08,0.34-0.23,0.43-0.42c0.17,0.19,0.29,0.42,0.34,0.67C20.13,29.82,19.9,29.93,19.65,29.98
			L19.65,29.98z M14.72,29.98L14.72,29.98c-0.25-0.05-0.48-0.17-0.67-0.34c0.05-0.25,0.17-0.48,0.34-0.67
			c0.09,0.19,0.24,0.34,0.43,0.42C14.71,29.57,14.68,29.78,14.72,29.98L14.72,29.98z M10.54,29.86L10.54,29.86
			c-1.92-1.16-3.51-2.8-4.62-4.76c0.7-0.69,1.33-1.46,1.88-2.28c0.45-0.79,0.81-1.63,1.07-2.51c0.3-1.07,0.78-2.09,1.41-3
			c0.61-0.69,1.35-1.26,2.18-1.68c0.82-0.41,1.54-0.98,2.14-1.67c0.55-0.81,1-1.7,1.32-2.63c0.25-0.7,0.56-1.37,0.92-2.02v9.4
			c0,2.28-0.6,4.52-1.73,6.5C14,27.12,12.43,28.72,10.54,29.86L10.54,29.86z M17.18,29.5c-0.48,0-0.87-0.39-0.87-0.87
			s0.39-0.87,0.87-0.87s0.87,0.39,0.87,0.87l0,0C18.05,29.11,17.66,29.5,17.18,29.5L17.18,29.5z M15.13,26.7L15.13,26.7
			c-0.03-0.25,0.01-0.51,0.11-0.74c0.06-0.01,0.11-0.01,0.15-0.01c0.2,0,0.4,0.04,0.58,0.13c-0.15,0.14-0.25,0.33-0.26,0.54
			c-0.06-0.02-0.12-0.02-0.18-0.02C15.4,26.6,15.26,26.63,15.13,26.7L15.13,26.7z M19.23,26.7L19.23,26.7
			c-0.13-0.07-0.26-0.1-0.41-0.1c-0.06,0-0.13,0.01-0.19,0.02c-0.02-0.2-0.11-0.4-0.26-0.54c0.18-0.08,0.39-0.13,0.59-0.13
			c0.05,0,0.1,0,0.16,0.01C19.22,26.2,19.26,26.45,19.23,26.7L19.23,26.7z M4.38,20.52L4.38,20.52L4.38,20.52
			c-0.08-0.6-0.13-1.21-0.13-1.81V4.26h10.69c-0.32,0.36-0.75,0.83-1.14,1.36c-0.61,0.92-1.04,1.95-1.28,3.02
			c-0.24,1.09-0.68,2.12-1.3,3.05c-0.63,0.72-1.39,1.32-2.24,1.76H8.98c-0.78,0.4-1.49,0.94-2.07,1.6c-0.6,0.86-1.05,1.81-1.32,2.82
			v0.01C5.32,18.81,4.92,19.7,4.38,20.52L4.38,20.52z"/>
		<path id="Fill_8" class="st3" d="M17.95,31.06c-0.31,0.03-0.59-0.19-0.63-0.5c-0.08-0.07-0.2-0.07-0.28,0
			c-0.04,0.31-0.32,0.53-0.63,0.5c-0.29-0.01-0.57-0.11-0.79-0.28c-0.33-0.21-0.54-0.57-0.55-0.96c0.01-0.2,0.14-0.37,0.32-0.45
			c0.04-0.1,0-0.21-0.09-0.27c-0.04,0.01-0.07,0.01-0.11,0.01c-0.18,0-0.34-0.08-0.44-0.23c-0.19-0.32-0.22-0.72-0.09-1.07
			c0.16-0.49,0.53-0.84,0.88-0.84c0.15,0,0.3,0.07,0.4,0.18h0.01c0.1,0,0.19-0.07,0.22-0.17c-0.1-0.17-0.09-0.38,0.01-0.55
			c0.24-0.31,0.62-0.48,1.01-0.45c0.39-0.02,0.77,0.15,1.01,0.45c0.1,0.17,0.11,0.38,0.01,0.55c0.03,0.1,0.12,0.16,0.22,0.17h0.01
			c0.1-0.11,0.25-0.18,0.4-0.18c0.35,0,0.72,0.35,0.88,0.84c0.13,0.35,0.1,0.74-0.09,1.07c-0.1,0.15-0.27,0.23-0.44,0.23
			c-0.04,0-0.07,0-0.11-0.01c-0.09,0.06-0.13,0.17-0.09,0.27c0.18,0.08,0.3,0.26,0.32,0.45c-0.02,0.39-0.22,0.75-0.55,0.96
			C18.51,30.95,18.23,31.05,17.95,31.06z M17.18,27.26c-0.75,0-1.36,0.61-1.36,1.36s0.61,1.36,1.36,1.36c0.75,0,1.36-0.61,1.36-1.36
			C18.54,27.87,17.93,27.26,17.18,27.26z M23.82,29.86L23.82,29.86c-3.91-2.36-6.29-6.59-6.28-11.16V4.26h12.57v14.44
			C30.11,23.27,27.73,27.5,23.82,29.86L23.82,29.86z M25.98,24.85L25.98,24.85c-0.26,0.21-0.43,0.52-0.47,0.85
			c0.2,0.08,0.41,0.12,0.63,0.12c0.29,0,0.58-0.05,0.86-0.14v-0.5c-0.01-0.17,0.12-0.32,0.29-0.33c0.01,0,0.02,0,0.03,0
			c0.03-0.64,0.16-1.26,0.38-1.86c0.17-0.48,0.35-0.9,0.44-1.1c-0.43-0.68-0.66-1.48-0.65-2.28c0.56-0.57,0.86-1.35,0.84-2.15
			c-0.09-0.68-0.59-1.32-1.68-2.14c-0.86-0.76-1.31-1.9-1.19-3.05l0.01-0.07c0.33-0.15,0.69-0.23,1.06-0.24
			c-0.24-0.2-0.44-0.44-0.6-0.72c0.56-0.11,1.11-0.28,1.63-0.51c-0.43-0.27-0.76-0.67-0.97-1.14c0.26,0.09,0.53,0.13,0.81,0.13
			c0.28,0,0.55-0.04,0.82-0.12c-0.27-0.2-0.49-0.46-0.66-0.76c-0.18-0.31-0.41-0.59-0.67-0.84c0.33-0.06,0.65-0.17,0.95-0.31
			c-0.42-0.58-1.05-0.96-1.76-1.08c0.35-0.15,0.66-0.37,0.91-0.65C26.69,5.99,26.42,6,26.18,6c-0.48,0-0.96-0.04-1.43-0.12h-0.01
			c-0.14-0.02-0.27-0.04-0.38-0.05c0.04,0.15,0.05,0.3,0.03,0.45c0,0.15-0.13,0.27-0.28,0.27c-0.07,0-0.13-0.03-0.18-0.08l0.01-0.02
			c0.1-0.2,0.1-0.44,0-0.64c-0.13-0.27-0.34-0.48-0.61-0.61c-0.01,0.15-0.02,0.3-0.05,0.45c-0.04,0.2-0.05,0.4-0.05,0.6l-0.02,0.01
			c-0.28,0.14-0.55,0.3-0.81,0.48l-1.47,1.17C20.81,8,20.73,8.14,20.71,8.29c0.1,0.01,0.18,0.1,0.17,0.2
			c-0.01,0.09-0.08,0.17-0.18,0.17c-0.01,0.16,0.11,0.29,0.27,0.3c0.01,0,0.02,0,0.03,0l0.2-0.14c0-0.01,0-0.01,0-0.02
			c0-0.1,0.13-0.19,0.29-0.19s0.29,0.08,0.29,0.19s-0.13,0.19-0.29,0.19h-0.05l-0.21,0.15l0,0c0.17,0.07,0.35,0.11,0.54,0.12
			c0.23,0.02,0.45-0.13,0.51-0.35c0.06-0.21,0.31-0.26,0.66-0.26c0.17,0,0.35,0.01,0.4,0.01h0.05c0.14,0.01,0.31,0.01,0.49,0.01
			c0.33,0,0.55-0.09,0.72-0.57c0.03,0,0.05-0.01,0.08-0.01c0.07,0,0.14,0.03,0.19,0.09c0.04,0.08,0.05,0.18,0.01,0.26
			c-0.17,0.41-0.59,0.65-1.03,0.61c-0.23,0.63-0.66,1.17-1.22,1.55l0,0c-0.83,0.52-1.38,1.4-1.48,2.37l-1.71,0.58l-0.47,0.57
			c0.3,0.45,0.5,0.95,0.61,1.48v0.01v0.01v0.01c0.04,0.2,0.1,0.4,0.2,0.58c0.03-0.01,0.07-0.01,0.1-0.01c0.23,0,0.42,0.19,0.42,0.42
			c0,0.02,0,0.04,0,0.06v0.02v0.02v0.04c0.23,0.25,0.52,0.41,0.85,0.48c0.17-0.46,0.16-0.96-0.02-1.42h-0.5v-0.31
			c-0.31-0.1-0.55-0.35-0.64-0.66c-0.04-0.25,0.05-0.5,0.24-0.66l2.1,0.11h0.03c0.28-0.02,0.52-0.2,0.61-0.47
			c0.02-0.01,0.05-0.01,0.07-0.01c0.07,0,0.14,0.04,0.17,0.11c0.05,0.1,0.04,0.22-0.02,0.31c-0.18,0.28-0.49,0.45-0.83,0.46h-0.05
			l-0.84-0.05c0.36,0.69,0.96,1.24,1.68,1.54c0.74,0.31,1.34,0.87,1.7,1.58c0,0.8,0.08,2.2,0.64,2.66c1.82,1.49,2.09,1.8,0.95,3.84
			c0.03,0.06,0.04,0.12,0.04,0.18c0,0.23-0.19,0.42-0.42,0.42C26.03,24.86,26.01,24.86,25.98,24.85L25.98,24.85z M20.56,21.94
			c-0.26,0.22-0.43,0.52-0.48,0.85c0.19,0.08,0.4,0.13,0.61,0.12c0.27,0,0.54-0.05,0.8-0.14v-0.5h0.35c0.53-0.19,1.08-0.25,1.64-0.2
			c0.39,0,0.71,0.01,0.83,0.02h0.01c0-1.52,0.53-1.97,0.56-1.99c-0.31-0.71-0.45-1.49-0.43-2.26c-0.13-0.28-0.31-0.53-0.53-0.73
			c-0.7,0.13-1.18,0.78-1.11,1.49c0.02,0.54,0.16,1.06,0.4,1.54v0c0.21,0.41,0.33,0.85,0.35,1.31h-2.46c0,0.02,0.01,0.05,0.01,0.08
			c0,0.23-0.19,0.42-0.42,0.42c-0.02,0-0.04,0-0.06,0h-0.01L20.56,21.94z M27.46,11.97c-0.16,0-0.32,0.04-0.45,0.13
			c0.26,0.1,0.43,0.34,0.44,0.62c-0.03,0.22-0.1,0.44-0.21,0.64c-0.18,0.34-0.28,0.71-0.31,1.09c0,0.77,0.59,1.1,1.1,1.39
			c0.42,0.24,0.78,0.44,0.78,0.83c0.01,0.16-0.09,0.3-0.23,0.35c0.09,0.03,0.18,0.04,0.27,0.04c0.17,0,0.34-0.06,0.47-0.17
			c0.16-0.16,0.24-0.38,0.22-0.61c-0.02-0.33-0.15-0.64-0.36-0.89v-0.01c-0.22-0.26-0.35-0.59-0.37-0.93
			c0.03-0.29,0.15-0.56,0.34-0.77c0.25-0.3,0.4-0.67,0.42-1.06c-0.02-0.75-0.54-1.39-1.27-1.57c0.12,0.46,0.08,0.94-0.1,1.37
			C28.08,12.13,27.78,11.95,27.46,11.97L27.46,11.97z M19.04,9.77c-0.09,0.47-0.27,0.92-0.53,1.33v0.01
			c-0.14,0.23-0.26,0.48-0.35,0.73c0.03,0.02,0.06,0.04,0.08,0.06c0.17,0.17,0.17,0.43,0,0.6c0,0,0,0,0,0
			c-0.03,0.03-0.06,0.06-0.1,0.08l0,0c-0.02,0.33,0.07,0.65,0.27,0.92c0.44-0.2,0.78-0.56,0.98-1l-0.34-0.36l0.22-0.22
			c-0.15-0.29-0.15-0.63,0-0.91c0.15-0.21,0.39-0.32,0.64-0.31l0.92,1.72c0.11-0.48,0.35-0.92,0.68-1.27l-1.73-1.36L19.04,9.77
			L19.04,9.77z M22.66,7.5c-0.11,0-0.21-0.05-0.27-0.15c0.03-0.17,0.1-0.26,0.22-0.26c0.18,0.04,0.35,0.12,0.48,0.25
			C22.96,7.43,22.81,7.48,22.66,7.5L22.66,7.5z"/>
	</g>
	<g id="Group_51" transform="translate(0 0.036)">
		<g id="Group_13" transform="translate(0 0.857)">
			<path id="Clip_12-2" class="st1" d="M3,3.05h3.92v4.88H3V3.05z"/>
			<g>
				<defs>
					<rect id="SVGID_3_" x="3" y="3.05" width="3.92" height="4.88"/>
				</defs>
				<clipPath id="SVGID_4_">
					<use xlink:href="#SVGID_3_"  style="overflow:visible;"/>
				</clipPath>
				<g id="Group_13-2" class="st4">
					<path id="Fill_11" class="st3" d="M4.39,7.93H3V3.05h1.39C5.6,2.87,6.73,3.7,6.91,4.91C6.94,5.1,6.94,5.28,6.92,5.47
						C7.06,6.69,6.18,7.8,4.96,7.94C4.77,7.96,4.58,7.96,4.39,7.93z M3.82,3.82v3.38h0.64c1.15,0,1.64-0.51,1.64-1.72
						c0-1.15-0.51-1.66-1.65-1.66H3.82z"/>
				</g>
			</g>
		</g>
		<path id="Clip_15-2" class="st1" d="M3,32.93h107.46V3.03H3V32.93z"/>
		<g>
			<defs>
				<rect id="SVGID_5_" x="3" y="3.03" width="107.46" height="29.9"/>
			</defs>
			<clipPath id="SVGID_6_">
				<use xlink:href="#SVGID_5_"  style="overflow:visible;"/>
			</clipPath>
			<g class="st5">
				<path id="Fill_14" class="st3" d="M8.74,8.79H7.76v-3.5h0.98V8.79z M8.75,4.68h-1V3.97h1V4.68L8.75,4.68z"/>
				<path id="Fill_16" class="st3" d="M11.01,8.86C10.11,8.9,9.35,8.2,9.31,7.3c0-0.09,0-0.18,0.01-0.27
					c-0.08-0.92,0.6-1.73,1.52-1.81c0.05,0,0.1-0.01,0.15-0.01c0.46,0,1.53,0.18,1.53,1.89V7.3h-2.39
					c-0.02,0.48,0.34,0.89,0.82,0.91c0.04,0,0.07,0,0.11,0c0.37,0.01,0.73-0.14,0.98-0.41l0.43,0.42
					C12.11,8.64,11.57,8.87,11.01,8.86z M10.98,5.88c-0.46-0.01-0.83,0.36-0.84,0.81c0,0,0,0,0,0h1.64
					C11.73,6.15,11.47,5.88,10.98,5.88z"/>
				<path id="Fill_17" class="st3" d="M15.32,3.91h0.82v4.13h2.25v0.75h-3.07V3.91z"/>
				<path id="Fill_18" class="st3" d="M19.92,8.84C19.44,8.9,19,8.55,18.94,8.06c0-0.04-0.01-0.08-0.01-0.12
					c0-0.8,0.75-1.28,2.28-1.45V6.39c0-0.35-0.18-0.5-0.57-0.5c-0.44,0.02-0.85,0.18-1.18,0.47l-0.39-0.51
					c0.47-0.41,1.07-0.64,1.69-0.63c0.87,0,1.26,0.39,1.26,1.27v1.44c-0.02,0.29,0.02,0.58,0.1,0.86H21.3
					c-0.05-0.14-0.08-0.3-0.08-0.45C20.88,8.68,20.41,8.87,19.92,8.84z M21.22,7.04c-1,0.14-1.48,0.38-1.48,0.75
					c0,0.27,0.18,0.42,0.49,0.42c0.37,0,0.73-0.14,1-0.4L21.22,7.04z"/>
				<path id="Fill_19" class="st3" d="M22.91,5.29h0.82v0.47c0.33-0.35,0.8-0.55,1.28-0.54c0.52-0.04,0.97,0.35,1.01,0.87
					c0,0.06,0,0.12,0,0.18v2.51h-0.82V6.48c0-0.39-0.16-0.57-0.52-0.57c-0.36,0.02-0.7,0.19-0.95,0.45v2.42h-0.82V5.29z"/>
				<path id="Fill_20" class="st3" d="M28.13,8.84c-0.87,0-1.39-0.67-1.39-1.79c0-1.16,0.55-1.83,1.5-1.83c0.38,0,0.74,0.16,1,0.44
					V3.91h0.81v4.02c-0.02,0.29,0.01,0.58,0.11,0.86h-0.84c-0.06-0.15-0.08-0.32-0.08-0.48C28.97,8.65,28.56,8.85,28.13,8.84z
					 M28.42,5.89c-0.59,0-0.86,0.37-0.86,1.17c0,0.71,0.3,1.11,0.84,1.11c0.33-0.02,0.64-0.18,0.85-0.44v-1.4
					C29.05,6.06,28.74,5.9,28.42,5.89z"/>
				<path id="Fill_21" class="st3" d="M32.47,8.86c-0.9,0.04-1.66-0.66-1.7-1.55c0-0.09,0-0.18,0.01-0.27
					c-0.08-0.92,0.6-1.73,1.52-1.81c0.05,0,0.1-0.01,0.15-0.01c0.46,0,1.53,0.18,1.53,1.89V7.3h-2.39
					c-0.02,0.48,0.34,0.89,0.82,0.91c0.04,0,0.07,0,0.11,0c0.37,0.01,0.73-0.14,0.98-0.41l0.43,0.42
					C33.56,8.64,33.02,8.87,32.47,8.86z M32.44,5.88c-0.46-0.01-0.83,0.36-0.84,0.81c0,0,0,0,0,0h1.64
					C33.19,6.15,32.92,5.88,32.44,5.88z"/>
				<path id="Fill_22" class="st3" d="M34.49,8.31l0.44-0.5c0.31,0.26,0.7,0.41,1.1,0.42c0.43,0,0.7-0.11,0.7-0.4
					s-0.36-0.37-0.78-0.47c-0.6-0.14-1.32-0.3-1.32-1.11c0-0.61,0.53-1.03,1.3-1.03c0.52-0.02,1.04,0.15,1.44,0.5l-0.39,0.53
					c-0.28-0.23-0.63-0.36-0.99-0.38c-0.45,0-0.59,0.16-0.59,0.36c0,0.28,0.35,0.37,0.76,0.46c0.6,0.13,1.33,0.28,1.33,1.1
					c0,0.74-0.67,1.08-1.46,1.08C35.47,8.88,34.91,8.68,34.49,8.31"/>
				<path id="Fill_23" class="st3" d="M38.2,5.29h0.81v0.57h0.01c0.27-0.43,0.75-0.68,1.26-0.64h0.05l-0.03,0.75
					c-0.04-0.01-0.17-0.01-0.22-0.01c-0.45-0.01-0.87,0.23-1.08,0.62v2.22H38.2V5.29z"/>
				<path id="Fill_24" class="st3" d="M42.38,8.86c-0.9,0.04-1.66-0.66-1.7-1.55c0-0.09,0-0.18,0.01-0.27
					c-0.08-0.92,0.6-1.73,1.52-1.81c0.05,0,0.1-0.01,0.15-0.01c0.46,0,1.53,0.18,1.53,1.89V7.3h-2.39
					c-0.02,0.48,0.35,0.89,0.83,0.91c0.04,0,0.07,0,0.11,0c0.37,0.01,0.73-0.14,0.98-0.41l0.43,0.42
					C43.48,8.64,42.94,8.87,42.38,8.86z M42.36,5.88c-0.46-0.01-0.83,0.36-0.84,0.81c0,0,0,0,0,0h1.64
					C43.11,6.15,42.84,5.88,42.36,5.88z"/>
				<path id="Fill_25" class="st3" d="M45.94,10.15c-1.1,0-1.69-0.3-1.69-0.86c0.01-0.35,0.24-0.65,0.57-0.74
					c-0.17-0.08-0.28-0.24-0.27-0.43c0.04-0.28,0.22-0.52,0.48-0.64c-0.35-0.21-0.56-0.6-0.55-1.01c0.02-0.72,0.62-1.28,1.34-1.26
					c0.05,0,0.09,0,0.14,0.01c0.39-0.02,0.77,0.12,1.07,0.37c0.26-0.19,0.56-0.31,0.87-0.34v0.66h-0.01c-0.2,0-0.41,0.03-0.6,0.09
					c0.09,0.14,0.13,0.31,0.13,0.47c0,0.76-0.57,1.25-1.46,1.25c-0.17,0-0.33-0.02-0.49-0.07c-0.12,0.07-0.18,0.14-0.18,0.22
					c0,0.14,0.09,0.18,0.4,0.21l0.62,0.04c1.03,0.06,1.44,0.34,1.44,0.96C47.75,9.76,47.09,10.15,45.94,10.15z M45.33,8.7L45.33,8.7
					C45.13,8.77,45.01,8.95,45,9.15c0,0.29,0.31,0.41,1.07,0.41c0.59,0,0.96-0.16,0.96-0.41s-0.2-0.35-0.89-0.39l-0.61-0.04
					C45.47,8.72,45.39,8.71,45.33,8.7L45.33,8.7z M45.96,5.83c-0.35-0.05-0.66,0.2-0.71,0.54c-0.01,0.04-0.01,0.09,0,0.13
					c-0.02,0.35,0.24,0.64,0.59,0.67c0.04,0,0.09,0,0.13-0.01c0.34,0.05,0.65-0.19,0.7-0.53c0.01-0.04,0.01-0.09,0-0.13
					c0.03-0.34-0.23-0.65-0.57-0.68C46.05,5.82,46,5.82,45.96,5.83z"/>
				<path id="Fill_26" class="st3" d="M49.5,8.79h-0.98v-3.5h0.98V8.79z M49.51,4.68h-1V3.97h1V4.68L49.51,4.68z"/>
				<path id="Fill_27" class="st3" d="M51.77,8.86c-0.9,0.04-1.66-0.66-1.7-1.55c0-0.09,0-0.18,0.01-0.27
					c-0.08-0.92,0.6-1.73,1.52-1.81c0.05,0,0.1-0.01,0.15-0.01c0.46,0,1.53,0.18,1.53,1.89V7.3h-2.39
					c-0.02,0.48,0.34,0.89,0.82,0.91c0.04,0,0.07,0,0.11,0c0.37,0.01,0.73-0.14,0.98-0.41l0.43,0.42
					C52.86,8.64,52.33,8.87,51.77,8.86z M51.74,5.88c-0.46-0.01-0.83,0.36-0.84,0.81c0,0,0,0,0,0h1.64
					C52.49,6.15,52.22,5.88,51.74,5.88z"/>
				<path id="Fill_28" class="st3" d="M54.03,5.29h0.81v0.57h0.01c0.27-0.43,0.75-0.68,1.26-0.64h0.05l-0.03,0.75
					c-0.04-0.01-0.17-0.01-0.22-0.01c-0.45-0.01-0.87,0.23-1.08,0.62v2.22h-0.81V5.29z"/>
				<path id="Fill_29" class="st3" d="M56.74,7.8V5.28h0.82v2.32c0,0.39,0.17,0.57,0.52,0.57c0.36-0.02,0.7-0.19,0.95-0.46V5.28
					h0.82v3.5h-0.82V8.31c-0.33,0.35-0.8,0.55-1.28,0.54c-0.52,0.04-0.97-0.35-1.01-0.87C56.73,7.92,56.73,7.86,56.74,7.8"/>
				<path id="Fill_30" class="st3" d="M60.76,5.29h0.82v0.47c0.33-0.35,0.8-0.55,1.28-0.54c0.52-0.04,0.97,0.35,1.01,0.87
					c0,0.06,0,0.12,0,0.18v2.51h-0.82V6.48c0-0.39-0.17-0.57-0.52-0.57c-0.36,0.02-0.7,0.19-0.95,0.45v2.42h-0.82V5.29z"/>
				<path id="Fill_31" class="st3" d="M66.07,10.15c-1.1,0-1.69-0.3-1.69-0.86c0.01-0.35,0.24-0.65,0.57-0.74
					c-0.17-0.08-0.28-0.24-0.27-0.43c0.04-0.28,0.22-0.52,0.47-0.64c-0.35-0.21-0.56-0.6-0.55-1.01c0.02-0.72,0.62-1.28,1.34-1.26
					c0.05,0,0.09,0,0.14,0.01c0.39-0.02,0.77,0.12,1.07,0.37c0.26-0.19,0.56-0.31,0.87-0.34v0.66h-0.01c-0.2,0-0.41,0.03-0.6,0.09
					c0.09,0.14,0.13,0.31,0.13,0.47c0,0.76-0.57,1.25-1.45,1.25c-0.17,0-0.33-0.02-0.49-0.07c-0.12,0.07-0.18,0.14-0.18,0.22
					c0,0.14,0.09,0.18,0.4,0.21l0.62,0.04c1.03,0.06,1.44,0.34,1.44,0.96C67.88,9.76,67.22,10.15,66.07,10.15z M65.45,8.7L65.45,8.7
					c-0.19,0.07-0.32,0.25-0.32,0.45c0,0.29,0.31,0.41,1.07,0.41c0.59,0,0.96-0.16,0.96-0.41s-0.2-0.35-0.89-0.39l-0.61-0.04
					C65.59,8.72,65.52,8.71,65.45,8.7L65.45,8.7z M66.08,5.83c-0.35-0.05-0.66,0.2-0.71,0.54c-0.01,0.04-0.01,0.09,0,0.13
					c-0.02,0.35,0.24,0.64,0.59,0.67c0.04,0,0.09,0,0.13-0.01c0.34,0.04,0.65-0.2,0.7-0.54c0.01-0.04,0.01-0.08,0-0.12
					c0.03-0.34-0.23-0.65-0.57-0.68C66.18,5.82,66.13,5.82,66.08,5.83z"/>
				<path id="Fill_32" class="st3" d="M3,11.82h0.84l2.31,3.48h0.01v-3.48h0.76v4.88H6.17l-2.39-3.55H3.77v3.55H3V11.82z"/>
				<path id="Fill_33" class="st3" d="M9.46,16.77c-0.91,0.03-1.68-0.68-1.72-1.59c0-0.08,0-0.15,0.01-0.23
					c-0.09-0.91,0.57-1.72,1.48-1.81c0.08-0.01,0.15-0.01,0.23-0.01c0.91-0.03,1.68,0.68,1.72,1.59c0,0.08,0,0.15-0.01,0.23
					c0.09,0.91-0.57,1.72-1.48,1.81C9.62,16.77,9.54,16.77,9.46,16.77z M9.46,13.82c-0.57,0-0.89,0.4-0.89,1.13s0.32,1.14,0.89,1.14
					c0.58,0,0.89-0.41,0.89-1.14C10.35,14.23,10.03,13.82,9.46,13.82L9.46,13.82z"/>
				<path id="Fill_34" class="st3" d="M11.9,13.2h0.81v0.57h0.01c0.27-0.43,0.75-0.68,1.26-0.64h0.05l-0.03,0.74
					c-0.04-0.01-0.17-0.01-0.22-0.01c-0.45-0.01-0.87,0.23-1.08,0.62v2.22H11.9V13.2z"/>
				<path id="Fill_35" class="st3" d="M15.82,16.75c-0.87,0-1.39-0.67-1.39-1.79c0-1.16,0.55-1.83,1.5-1.83c0.38,0,0.74,0.16,1,0.44
					v-1.75h0.81v4.02c-0.02,0.29,0.01,0.58,0.11,0.86h-0.84c-0.06-0.15-0.08-0.32-0.08-0.48C16.66,16.56,16.25,16.76,15.82,16.75z
					 M16.1,13.8c-0.59,0-0.86,0.37-0.86,1.17c0,0.71,0.3,1.11,0.84,1.11c0.33-0.02,0.64-0.18,0.85-0.44v-1.4
					C16.74,13.97,16.43,13.81,16.1,13.8z"/>
				<path id="Fill_36" class="st3" d="M18.67,13.2h0.81v0.57h0.01c0.27-0.43,0.75-0.68,1.26-0.64h0.05l-0.03,0.74
					c-0.04-0.01-0.17-0.01-0.22-0.01c-0.45-0.01-0.87,0.23-1.08,0.62v2.22h-0.81V13.2z"/>
				<path id="Fill_37" class="st3" d="M21.4,11.82h0.82v1.85c0.33-0.35,0.8-0.55,1.28-0.54c0.52-0.04,0.97,0.35,1.01,0.87
					c0,0.06,0,0.12,0,0.18v2.51h-0.82v-2.31c0-0.39-0.16-0.57-0.52-0.57c-0.36,0.02-0.7,0.19-0.95,0.45v2.42H21.4V11.82z"/>
				<path id="Fill_38" class="st3" d="M26.9,16.77c-0.9,0.04-1.66-0.66-1.7-1.55c0-0.09,0-0.18,0.01-0.27
					c-0.08-0.92,0.6-1.73,1.52-1.81c0.05,0,0.1-0.01,0.15-0.01c0.46,0,1.53,0.18,1.53,1.89v0.19h-2.39
					c-0.02,0.48,0.34,0.89,0.82,0.91c0.04,0,0.07,0,0.11,0c0.37,0.01,0.73-0.14,0.98-0.41l0.43,0.42
					C28,16.56,27.46,16.79,26.9,16.77z M26.88,13.79c-0.46-0.01-0.83,0.36-0.84,0.81c0,0,0,0,0,0h1.64
					C27.63,14.07,27.36,13.79,26.88,13.79z"/>
				<path id="Fill_39" class="st3" d="M30.16,16.7h-0.98v-3.5h0.98V16.7z M30.17,12.59h-1v-0.71h1V12.59L30.17,12.59z"/>
				<path id="Fill_40" class="st3" d="M30.92,13.2h0.82v0.48c0.33-0.35,0.8-0.55,1.28-0.54c0.52-0.04,0.97,0.35,1.01,0.87
					c0,0.06,0,0.12,0,0.18v2.51H33.2v-2.31c0-0.39-0.17-0.57-0.52-0.57c-0.36,0.02-0.7,0.19-0.95,0.45v2.42h-0.82V13.2z"/>
				<path id="Fill_41" class="st3" d="M34.83,14.92h1.63v-0.58h-1.63V14.92z"/>
				<path id="Fill_42" class="st3" d="M36.75,11.82h0.83l0.62,2.52c0.1,0.39,0.19,0.75,0.26,1.13h0.01
					c0.07-0.38,0.15-0.74,0.25-1.13l0.59-2.53h0.79l0.61,2.55c0.11,0.41,0.18,0.71,0.26,1.11h0.01c0.07-0.42,0.15-0.68,0.24-1.09
					l0.61-2.56h0.77l-1.29,4.88h-0.72l-0.88-3.74H39.7l-0.92,3.74h-0.72L36.75,11.82z"/>
				<path id="Fill_43" class="st3" d="M44.47,16.77c-0.9,0.04-1.66-0.66-1.7-1.55c0-0.09,0-0.18,0.01-0.27
					c-0.08-0.92,0.6-1.73,1.52-1.81c0.05,0,0.1-0.01,0.15-0.01c0.46,0,1.53,0.18,1.53,1.89v0.19h-2.39
					c-0.02,0.48,0.34,0.89,0.82,0.91c0.04,0,0.07,0,0.11,0c0.37,0.01,0.73-0.14,0.98-0.41l0.43,0.42
					C45.56,16.56,45.03,16.79,44.47,16.77z M44.44,13.79c-0.46-0.01-0.83,0.36-0.84,0.81c0,0,0,0,0,0h1.64
					C45.19,14.07,44.92,13.79,44.44,13.79z"/>
				<path id="Fill_44" class="st3" d="M46.49,16.22l0.44-0.49c0.31,0.26,0.7,0.41,1.1,0.41c0.44,0,0.7-0.11,0.7-0.4
					s-0.36-0.37-0.78-0.47c-0.6-0.14-1.32-0.3-1.32-1.11c0-0.61,0.53-1.03,1.3-1.03c0.52-0.02,1.04,0.15,1.44,0.49l-0.39,0.53
					c-0.28-0.23-0.63-0.36-0.99-0.38c-0.44,0-0.59,0.16-0.59,0.36c0,0.28,0.35,0.37,0.76,0.46c0.6,0.13,1.33,0.28,1.33,1.1
					c0,0.74-0.67,1.08-1.46,1.08C47.47,16.79,46.92,16.59,46.49,16.22"/>
				<path id="Fill_45" class="st3" d="M50.54,15.78v-1.93h-0.61V13.2h0.61v-1.22h0.81v1.22h0.9v0.65h-0.9v1.73
					c0,0.38,0.11,0.53,0.51,0.53c0.12,0,0.24-0.02,0.35-0.05v0.64c-0.2,0.03-0.39,0.05-0.59,0.05
					C50.73,16.74,50.54,16.42,50.54,15.78"/>
				<path id="Fill_46" class="st3" d="M53.35,13.84h-0.61V13.2h0.61v-0.36c0-0.59,0.24-1.04,1.13-1.04c0.15,0,0.42,0.03,0.48,0.03
					v0.63c-0.09-0.02-0.18-0.03-0.28-0.03c-0.29,0-0.53,0.08-0.53,0.45v0.31h0.76v0.65h-0.76v2.85h-0.81V13.84z"/>
				<path id="Fill_47" class="st3" d="M56.33,16.75c-0.49,0.06-0.93-0.29-0.98-0.78c0-0.04-0.01-0.08-0.01-0.12
					c0-0.8,0.75-1.28,2.28-1.45V14.3c0-0.35-0.18-0.5-0.57-0.5c-0.44,0.02-0.85,0.18-1.18,0.48l-0.4-0.51
					c0.47-0.41,1.07-0.64,1.69-0.63c0.87,0,1.26,0.39,1.26,1.27v1.44c-0.02,0.29,0.02,0.58,0.1,0.86H57.7
					c-0.05-0.14-0.08-0.3-0.08-0.45C57.29,16.6,56.81,16.78,56.33,16.75z M57.62,14.95c-1,0.14-1.48,0.38-1.48,0.75
					c0,0.27,0.18,0.42,0.49,0.42c0.37,0,0.73-0.14,1-0.4L57.62,14.95z"/>
				<path id="Fill_48" class="st3" d="M59.33,16.7h0.82v-4.88h-0.82V16.7z"/>
				<path id="Fill_49" class="st3" d="M62.59,16.77c-0.9,0.04-1.66-0.66-1.7-1.55c0-0.09,0-0.18,0.01-0.27
					c-0.08-0.92,0.6-1.73,1.52-1.81c0.05,0,0.1-0.01,0.15-0.01c0.46,0,1.53,0.18,1.53,1.89v0.19h-2.39
					c-0.02,0.48,0.34,0.89,0.82,0.91c0.04,0,0.07,0,0.11,0c0.37,0.01,0.73-0.14,0.98-0.41l0.43,0.42
					C63.68,16.56,63.15,16.79,62.59,16.77z M62.56,13.79c-0.46-0.01-0.83,0.36-0.84,0.81c0,0,0,0,0,0h1.64
					C63.31,14.07,63.04,13.79,62.56,13.79z"/>
				<path id="Fill_50" class="st3" d="M64.85,13.2h0.82v0.48c0.33-0.35,0.8-0.55,1.28-0.54c0.52-0.04,0.97,0.35,1.01,0.87
					c0,0.06,0,0.12,0,0.18v2.51h-0.82v-2.31c0-0.39-0.17-0.57-0.52-0.57c-0.36,0.02-0.7,0.19-0.95,0.45v2.42h-0.82V13.2z"/>
			</g>
		</g>
	</g>
</g>
</svg>
