<svg xmlns="http://www.w3.org/2000/svg" width="32.069" height="24.365" viewBox="0 0 32.069 24.365"><path d="M32.069,2.893a13.67,13.67,0,0,1-3.3,3.179c.02.266.02.533.02.8,0,8.128-6.613,17.494-18.7,17.494A19.515,19.515,0,0,1,0,21.605a14.516,14.516,0,0,0,1.587.076,13.75,13.75,0,0,0,8.16-2.627A6.545,6.545,0,0,1,3.6,14.791a8.841,8.841,0,0,0,1.241.1,7.4,7.4,0,0,0,1.73-.209A6.268,6.268,0,0,1,1.3,8.642V8.566a6.968,6.968,0,0,0,2.971.78,6.051,6.051,0,0,1-2.93-5.121,5.805,5.805,0,0,1,.9-3.1A19.136,19.136,0,0,0,15.79,7.557a6.51,6.51,0,0,1-.163-1.409A6.368,6.368,0,0,1,22.2,0,6.775,6.775,0,0,1,27,1.942,13.494,13.494,0,0,0,31.174.457a6.225,6.225,0,0,1-2.889,3.388A13.9,13.9,0,0,0,32.069,2.893Z" transform="translate(0)" fill="#fff"/></svg>